<svg width="1537" height="199" viewBox="0 0 1537 199" fill="none" xmlns="http://www.w3.org/2000/svg">
<path d="M1531.46 73H42.4561V115H1531.46V73Z" fill="#F2F2F2" fill-opacity="0.501961"/>
<path d="M1531.46 157H42.4561V198H1531.46V157Z" fill="#F2F2F2" fill-opacity="0.501961"/>
<path d="M42.9561 23V198" stroke="#2e2e2e"/>
<path d="M104.957 23V198" stroke="#2e2e2e"/>
<path d="M46.8936 69.6504V73.5869" stroke="#2e2e2e"/>
<path d="M79.3706 69.6504V73.5869" stroke="#2e2e2e"/>
<path d="M63.1313 69.6504V73.5869" stroke="#2e2e2e"/>
<path d="M95.6084 69.6504V73.5869" stroke="#2e2e2e"/>
<path d="M52.3062 69.6504V73.5869" stroke="#2e2e2e"/>
<path d="M84.7827 69.6504V73.5869" stroke="#2e2e2e"/>
<path d="M68.5449 69.6504V73.5869" stroke="#2e2e2e"/>
<path d="M101.021 69.6504V73.5869" stroke="#2e2e2e"/>
<path d="M57.7188 64.7295V73.5867" stroke="#2e2e2e"/>
<path d="M90.1958 64.7295V73.5867" stroke="#2e2e2e"/>
<path d="M73.957 52.9199V73.5868" stroke="#2e2e2e"/>
<path d="M46.8936 111.984V115.92" stroke="#2e2e2e"/>
<path d="M79.3706 111.984V115.92" stroke="#2e2e2e"/>
<path d="M63.1313 111.984V115.92" stroke="#2e2e2e"/>
<path d="M95.6084 111.984V115.92" stroke="#2e2e2e"/>
<path d="M52.3062 111.984V115.92" stroke="#2e2e2e"/>
<path d="M84.7827 111.984V115.92" stroke="#2e2e2e"/>
<path d="M68.5449 111.984V115.92" stroke="#2e2e2e"/>
<path d="M101.021 111.984V115.92" stroke="#2e2e2e"/>
<path d="M57.7192 107.063V115.92" stroke="#2e2e2e"/>
<path d="M90.1958 107.063V115.92" stroke="#2e2e2e"/>
<path d="M73.957 95.2529V115.92" stroke="#2e2e2e"/>
<path d="M46.8936 153.318V157.255" stroke="#2e2e2e"/>
<path d="M79.3706 153.318V157.255" stroke="#2e2e2e"/>
<path d="M63.1313 153.318V157.255" stroke="#2e2e2e"/>
<path d="M95.6084 153.318V157.255" stroke="#2e2e2e"/>
<path d="M52.3062 153.318V157.255" stroke="#2e2e2e"/>
<path d="M84.7827 153.318V157.255" stroke="#2e2e2e"/>
<path d="M68.5449 153.318V157.255" stroke="#2e2e2e"/>
<path d="M101.021 153.318V157.255" stroke="#2e2e2e"/>
<path d="M57.7188 148.397V157.255" stroke="#2e2e2e"/>
<path d="M90.1958 148.397V157.255" stroke="#2e2e2e"/>
<path d="M73.957 136.588V157.255" stroke="#2e2e2e"/>
<path d="M46.8936 194.652V198.589" stroke="#2e2e2e"/>
<path d="M79.3706 194.652V198.589" stroke="#2e2e2e"/>
<path d="M63.1313 194.652V198.589" stroke="#2e2e2e"/>
<path d="M95.6084 194.652V198.589" stroke="#2e2e2e"/>
<path d="M52.3062 194.652V198.589" stroke="#2e2e2e"/>
<path d="M84.7827 194.652V198.589" stroke="#2e2e2e"/>
<path d="M68.5449 194.652V198.589" stroke="#2e2e2e"/>
<path d="M101.021 194.652V198.589" stroke="#2e2e2e"/>
<path d="M57.7192 189.731V198.589" stroke="#2e2e2e"/>
<path d="M90.1958 189.731V198.589" stroke="#2e2e2e"/>
<path d="M73.957 177.922V198.589" stroke="#2e2e2e"/>
<path d="M108.893 69.6504V73.5869" stroke="#2e2e2e"/>
<path d="M141.37 69.6504V73.5869" stroke="#2e2e2e"/>
<path d="M125.13 69.6504V73.5869" stroke="#2e2e2e"/>
<path d="M157.607 69.6504V73.5869" stroke="#2e2e2e"/>
<path d="M114.305 69.6504V73.5869" stroke="#2e2e2e"/>
<path d="M146.782 69.6504V73.5869" stroke="#2e2e2e"/>
<path d="M130.544 69.6504V73.5869" stroke="#2e2e2e"/>
<path d="M163.02 69.6504V73.5869" stroke="#2e2e2e"/>
<path d="M119.718 64.7295V73.5867" stroke="#2e2e2e"/>
<path d="M152.195 64.7295V73.5867" stroke="#2e2e2e"/>
<path d="M135.956 52.9199V73.5868" stroke="#2e2e2e"/>
<path d="M108.893 111.984V115.92" stroke="#2e2e2e"/>
<path d="M141.37 111.984V115.92" stroke="#2e2e2e"/>
<path d="M125.13 111.984V115.92" stroke="#2e2e2e"/>
<path d="M157.607 111.984V115.92" stroke="#2e2e2e"/>
<path d="M114.305 111.984V115.92" stroke="#2e2e2e"/>
<path d="M146.782 111.984V115.92" stroke="#2e2e2e"/>
<path d="M130.544 111.984V115.92" stroke="#2e2e2e"/>
<path d="M163.02 111.984V115.92" stroke="#2e2e2e"/>
<path d="M119.718 107.063V115.92" stroke="#2e2e2e"/>
<path d="M152.195 107.063V115.92" stroke="#2e2e2e"/>
<path d="M135.956 95.2529V115.92" stroke="#2e2e2e"/>
<path d="M108.893 153.318V157.255" stroke="#2e2e2e"/>
<path d="M141.37 153.318V157.255" stroke="#2e2e2e"/>
<path d="M125.13 153.318V157.255" stroke="#2e2e2e"/>
<path d="M157.607 153.318V157.255" stroke="#2e2e2e"/>
<path d="M114.305 153.318V157.255" stroke="#2e2e2e"/>
<path d="M146.782 153.318V157.255" stroke="#2e2e2e"/>
<path d="M130.544 153.318V157.255" stroke="#2e2e2e"/>
<path d="M163.02 153.318V157.255" stroke="#2e2e2e"/>
<path d="M119.718 148.397V157.255" stroke="#2e2e2e"/>
<path d="M152.195 148.397V157.255" stroke="#2e2e2e"/>
<path d="M135.956 136.588V157.255" stroke="#2e2e2e"/>
<path d="M108.893 194.652V198.588" stroke="#2e2e2e"/>
<path d="M141.37 194.652V198.588" stroke="#2e2e2e"/>
<path d="M125.13 194.652V198.588" stroke="#2e2e2e"/>
<path d="M157.607 194.652V198.588" stroke="#2e2e2e"/>
<path d="M114.305 194.652V198.588" stroke="#2e2e2e"/>
<path d="M146.782 194.652V198.588" stroke="#2e2e2e"/>
<path d="M130.544 194.652V198.588" stroke="#2e2e2e"/>
<path d="M163.02 194.652V198.588" stroke="#2e2e2e"/>
<path d="M119.718 189.731V198.588" stroke="#2e2e2e"/>
<path d="M152.195 189.731V198.588" stroke="#2e2e2e"/>
<path d="M135.956 177.921V198.588" stroke="#2e2e2e"/>
<path d="M170.894 69.6504V73.5869" stroke="#2e2e2e"/>
<path d="M203.371 69.6504V73.5869" stroke="#2e2e2e"/>
<path d="M187.131 69.6504V73.5869" stroke="#2e2e2e"/>
<path d="M219.608 69.6504V73.5869" stroke="#2e2e2e"/>
<path d="M176.306 69.6504V73.5869" stroke="#2e2e2e"/>
<path d="M208.783 69.6504V73.5869" stroke="#2e2e2e"/>
<path d="M192.545 69.6504V73.5869" stroke="#2e2e2e"/>
<path d="M225.021 69.6504V73.5869" stroke="#2e2e2e"/>
<path d="M181.72 64.7295V73.5867" stroke="#2e2e2e"/>
<path d="M214.196 64.7295V73.5867" stroke="#2e2e2e"/>
<path d="M197.957 52.9199V73.5868" stroke="#2e2e2e"/>
<path d="M170.894 111.984V115.92" stroke="#2e2e2e"/>
<path d="M203.371 111.984V115.92" stroke="#2e2e2e"/>
<path d="M187.131 111.984V115.92" stroke="#2e2e2e"/>
<path d="M219.608 111.984V115.92" stroke="#2e2e2e"/>
<path d="M176.306 111.984V115.92" stroke="#2e2e2e"/>
<path d="M208.783 111.984V115.92" stroke="#2e2e2e"/>
<path d="M192.545 111.984V115.92" stroke="#2e2e2e"/>
<path d="M225.021 111.984V115.92" stroke="#2e2e2e"/>
<path d="M181.72 107.063V115.921" stroke="#2e2e2e"/>
<path d="M214.196 107.063V115.921" stroke="#2e2e2e"/>
<path d="M197.957 95.2539V115.921" stroke="#2e2e2e"/>
<path d="M170.894 153.317V157.254" stroke="#2e2e2e"/>
<path d="M203.371 153.317V157.254" stroke="#2e2e2e"/>
<path d="M187.131 153.317V157.254" stroke="#2e2e2e"/>
<path d="M219.608 153.317V157.254" stroke="#2e2e2e"/>
<path d="M176.306 153.317V157.254" stroke="#2e2e2e"/>
<path d="M208.783 153.317V157.254" stroke="#2e2e2e"/>
<path d="M192.545 153.317V157.254" stroke="#2e2e2e"/>
<path d="M225.021 153.317V157.254" stroke="#2e2e2e"/>
<path d="M181.719 148.397V157.254" stroke="#2e2e2e"/>
<path d="M214.196 148.397V157.254" stroke="#2e2e2e"/>
<path d="M197.957 136.587V157.254" stroke="#2e2e2e"/>
<path d="M170.894 194.652V198.588" stroke="#2e2e2e"/>
<path d="M203.371 194.652V198.588" stroke="#2e2e2e"/>
<path d="M187.131 194.652V198.588" stroke="#2e2e2e"/>
<path d="M219.608 194.652V198.588" stroke="#2e2e2e"/>
<path d="M176.306 194.652V198.588" stroke="#2e2e2e"/>
<path d="M208.783 194.652V198.588" stroke="#2e2e2e"/>
<path d="M192.545 194.652V198.588" stroke="#2e2e2e"/>
<path d="M225.021 194.652V198.588" stroke="#2e2e2e"/>
<path d="M181.72 189.731V198.589" stroke="#2e2e2e"/>
<path d="M214.196 189.731V198.589" stroke="#2e2e2e"/>
<path d="M197.957 177.921V198.588" stroke="#2e2e2e"/>
<path d="M232.894 69.6504V73.5869" stroke="#2e2e2e"/>
<path d="M265.371 69.6504V73.5869" stroke="#2e2e2e"/>
<path d="M249.132 69.6504V73.5869" stroke="#2e2e2e"/>
<path d="M281.609 69.6504V73.5869" stroke="#2e2e2e"/>
<path d="M238.307 69.6504V73.5869" stroke="#2e2e2e"/>
<path d="M270.784 69.6504V73.5869" stroke="#2e2e2e"/>
<path d="M254.545 69.6504V73.5869" stroke="#2e2e2e"/>
<path d="M287.021 69.6504V73.5869" stroke="#2e2e2e"/>
<path d="M243.72 64.7295V73.5867" stroke="#2e2e2e"/>
<path d="M276.196 64.7295V73.5867" stroke="#2e2e2e"/>
<path d="M259.957 52.9199V73.5868" stroke="#2e2e2e"/>
<path d="M232.894 111.984V115.921" stroke="#2e2e2e"/>
<path d="M265.371 111.984V115.921" stroke="#2e2e2e"/>
<path d="M249.132 111.984V115.921" stroke="#2e2e2e"/>
<path d="M281.609 111.984V115.921" stroke="#2e2e2e"/>
<path d="M238.307 111.984V115.921" stroke="#2e2e2e"/>
<path d="M270.784 111.984V115.921" stroke="#2e2e2e"/>
<path d="M254.545 111.984V115.921" stroke="#2e2e2e"/>
<path d="M287.021 111.984V115.921" stroke="#2e2e2e"/>
<path d="M243.72 107.063V115.921" stroke="#2e2e2e"/>
<path d="M276.196 107.063V115.921" stroke="#2e2e2e"/>
<path d="M259.957 95.2539V115.921" stroke="#2e2e2e"/>
<path d="M232.894 153.317V157.254" stroke="#2e2e2e"/>
<path d="M265.372 153.317V157.254" stroke="#2e2e2e"/>
<path d="M249.133 153.317V157.254" stroke="#2e2e2e"/>
<path d="M281.609 153.317V157.254" stroke="#2e2e2e"/>
<path d="M238.307 153.317V157.254" stroke="#2e2e2e"/>
<path d="M270.784 153.317V157.254" stroke="#2e2e2e"/>
<path d="M254.546 153.317V157.254" stroke="#2e2e2e"/>
<path d="M287.022 153.317V157.254" stroke="#2e2e2e"/>
<path d="M243.72 148.396V157.254" stroke="#2e2e2e"/>
<path d="M276.197 148.396V157.254" stroke="#2e2e2e"/>
<path d="M259.958 136.587V157.254" stroke="#2e2e2e"/>
<path d="M232.894 194.651V198.588" stroke="#2e2e2e"/>
<path d="M265.372 194.651V198.588" stroke="#2e2e2e"/>
<path d="M249.133 194.651V198.588" stroke="#2e2e2e"/>
<path d="M281.609 194.651V198.588" stroke="#2e2e2e"/>
<path d="M238.307 194.651V198.588" stroke="#2e2e2e"/>
<path d="M270.784 194.651V198.588" stroke="#2e2e2e"/>
<path d="M254.546 194.651V198.588" stroke="#2e2e2e"/>
<path d="M287.022 194.651V198.588" stroke="#2e2e2e"/>
<path d="M243.72 189.73V198.588" stroke="#2e2e2e"/>
<path d="M276.197 189.73V198.588" stroke="#2e2e2e"/>
<path d="M259.958 177.921V198.588" stroke="#2e2e2e"/>
<path d="M294.896 69.6504V73.5869" stroke="#2e2e2e"/>
<path d="M327.373 69.6504V73.5869" stroke="#2e2e2e"/>
<path d="M311.134 69.6504V73.5869" stroke="#2e2e2e"/>
<path d="M343.611 69.6504V73.5869" stroke="#2e2e2e"/>
<path d="M300.309 69.6504V73.5869" stroke="#2e2e2e"/>
<path d="M332.785 69.6504V73.5869" stroke="#2e2e2e"/>
<path d="M316.547 69.6504V73.5869" stroke="#2e2e2e"/>
<path d="M349.023 69.6504V73.5869" stroke="#2e2e2e"/>
<path d="M305.722 64.7295V73.5867" stroke="#2e2e2e"/>
<path d="M338.198 64.7295V73.5867" stroke="#2e2e2e"/>
<path d="M321.959 52.9199V73.5868" stroke="#2e2e2e"/>
<path d="M294.896 111.984V115.92" stroke="#2e2e2e"/>
<path d="M327.373 111.984V115.92" stroke="#2e2e2e"/>
<path d="M311.134 111.984V115.92" stroke="#2e2e2e"/>
<path d="M343.611 111.984V115.92" stroke="#2e2e2e"/>
<path d="M300.309 111.984V115.92" stroke="#2e2e2e"/>
<path d="M332.785 111.984V115.92" stroke="#2e2e2e"/>
<path d="M316.547 111.984V115.92" stroke="#2e2e2e"/>
<path d="M349.023 111.984V115.92" stroke="#2e2e2e"/>
<path d="M305.722 107.063V115.92" stroke="#2e2e2e"/>
<path d="M338.198 107.063V115.92" stroke="#2e2e2e"/>
<path d="M321.959 95.2529V115.92" stroke="#2e2e2e"/>
<path d="M294.895 153.318V157.255" stroke="#2e2e2e"/>
<path d="M327.372 153.318V157.255" stroke="#2e2e2e"/>
<path d="M311.133 153.318V157.255" stroke="#2e2e2e"/>
<path d="M343.61 153.318V157.255" stroke="#2e2e2e"/>
<path d="M300.308 153.318V157.255" stroke="#2e2e2e"/>
<path d="M332.784 153.318V157.255" stroke="#2e2e2e"/>
<path d="M316.546 153.318V157.255" stroke="#2e2e2e"/>
<path d="M349.022 153.318V157.255" stroke="#2e2e2e"/>
<path d="M305.721 148.397V157.255" stroke="#2e2e2e"/>
<path d="M338.197 148.397V157.255" stroke="#2e2e2e"/>
<path d="M321.958 136.588V157.255" stroke="#2e2e2e"/>
<path d="M294.895 194.651V198.588" stroke="#2e2e2e"/>
<path d="M327.372 194.651V198.588" stroke="#2e2e2e"/>
<path d="M311.133 194.651V198.588" stroke="#2e2e2e"/>
<path d="M343.61 194.651V198.588" stroke="#2e2e2e"/>
<path d="M300.308 194.651V198.588" stroke="#2e2e2e"/>
<path d="M332.784 194.651V198.588" stroke="#2e2e2e"/>
<path d="M316.546 194.651V198.588" stroke="#2e2e2e"/>
<path d="M349.022 194.651V198.588" stroke="#2e2e2e"/>
<path d="M305.721 189.73V198.588" stroke="#2e2e2e"/>
<path d="M338.197 189.73V198.588" stroke="#2e2e2e"/>
<path d="M321.958 177.921V198.588" stroke="#2e2e2e"/>
<path d="M356.896 69.6504V73.5869" stroke="#2e2e2e"/>
<path d="M389.372 69.6504V73.5869" stroke="#2e2e2e"/>
<path d="M373.133 69.6504V73.5869" stroke="#2e2e2e"/>
<path d="M405.611 69.6504V73.5869" stroke="#2e2e2e"/>
<path d="M362.309 69.6504V73.5869" stroke="#2e2e2e"/>
<path d="M394.785 69.6504V73.5869" stroke="#2e2e2e"/>
<path d="M378.547 69.6504V73.5869" stroke="#2e2e2e"/>
<path d="M411.023 69.6504V73.5869" stroke="#2e2e2e"/>
<path d="M367.722 64.7295V73.5867" stroke="#2e2e2e"/>
<path d="M400.197 64.7295V73.5867" stroke="#2e2e2e"/>
<path d="M383.959 52.9199V73.5868" stroke="#2e2e2e"/>
<path d="M356.896 111.984V115.92" stroke="#2e2e2e"/>
<path d="M389.372 111.984V115.92" stroke="#2e2e2e"/>
<path d="M373.133 111.984V115.92" stroke="#2e2e2e"/>
<path d="M405.611 111.984V115.92" stroke="#2e2e2e"/>
<path d="M362.309 111.984V115.92" stroke="#2e2e2e"/>
<path d="M394.785 111.984V115.92" stroke="#2e2e2e"/>
<path d="M378.547 111.984V115.92" stroke="#2e2e2e"/>
<path d="M411.023 111.984V115.92" stroke="#2e2e2e"/>
<path d="M367.722 107.063V115.921" stroke="#2e2e2e"/>
<path d="M400.197 107.063V115.921" stroke="#2e2e2e"/>
<path d="M383.959 95.2539V115.921" stroke="#2e2e2e"/>
<path d="M356.895 153.317V157.254" stroke="#2e2e2e"/>
<path d="M389.372 153.317V157.254" stroke="#2e2e2e"/>
<path d="M373.133 153.317V157.254" stroke="#2e2e2e"/>
<path d="M405.61 153.317V157.254" stroke="#2e2e2e"/>
<path d="M362.308 153.317V157.254" stroke="#2e2e2e"/>
<path d="M394.785 153.317V157.254" stroke="#2e2e2e"/>
<path d="M378.547 153.317V157.254" stroke="#2e2e2e"/>
<path d="M411.023 153.317V157.254" stroke="#2e2e2e"/>
<path d="M367.721 148.397V157.254" stroke="#2e2e2e"/>
<path d="M400.197 148.397V157.254" stroke="#2e2e2e"/>
<path d="M383.959 136.587V157.254" stroke="#2e2e2e"/>
<path d="M356.896 194.651V198.588" stroke="#2e2e2e"/>
<path d="M389.372 194.651V198.588" stroke="#2e2e2e"/>
<path d="M373.133 194.651V198.588" stroke="#2e2e2e"/>
<path d="M405.611 194.651V198.588" stroke="#2e2e2e"/>
<path d="M362.309 194.651V198.588" stroke="#2e2e2e"/>
<path d="M394.785 194.651V198.588" stroke="#2e2e2e"/>
<path d="M378.547 194.651V198.588" stroke="#2e2e2e"/>
<path d="M411.023 194.651V198.588" stroke="#2e2e2e"/>
<path d="M367.722 189.731V198.588" stroke="#2e2e2e"/>
<path d="M400.197 189.731V198.588" stroke="#2e2e2e"/>
<path d="M383.959 177.921V198.588" stroke="#2e2e2e"/>
<path d="M418.897 69.6504V73.5869" stroke="#2e2e2e"/>
<path d="M451.374 69.6504V73.5869" stroke="#2e2e2e"/>
<path d="M435.135 69.6504V73.5869" stroke="#2e2e2e"/>
<path d="M467.612 69.6504V73.5869" stroke="#2e2e2e"/>
<path d="M424.31 69.6504V73.5869" stroke="#2e2e2e"/>
<path d="M456.786 69.6504V73.5869" stroke="#2e2e2e"/>
<path d="M440.548 69.6504V73.5869" stroke="#2e2e2e"/>
<path d="M473.025 69.6504V73.5869" stroke="#2e2e2e"/>
<path d="M429.723 64.7295V73.5867" stroke="#2e2e2e"/>
<path d="M462.199 64.7295V73.5867" stroke="#2e2e2e"/>
<path d="M445.96 52.9199V73.5868" stroke="#2e2e2e"/>
<path d="M418.897 111.984V115.92" stroke="#2e2e2e"/>
<path d="M451.374 111.984V115.92" stroke="#2e2e2e"/>
<path d="M435.135 111.984V115.92" stroke="#2e2e2e"/>
<path d="M467.612 111.984V115.92" stroke="#2e2e2e"/>
<path d="M424.31 111.984V115.92" stroke="#2e2e2e"/>
<path d="M456.786 111.984V115.92" stroke="#2e2e2e"/>
<path d="M440.548 111.984V115.92" stroke="#2e2e2e"/>
<path d="M473.025 111.984V115.92" stroke="#2e2e2e"/>
<path d="M429.723 107.063V115.921" stroke="#2e2e2e"/>
<path d="M462.199 107.063V115.921" stroke="#2e2e2e"/>
<path d="M445.96 95.2539V115.921" stroke="#2e2e2e"/>
<path d="M418.897 153.317V157.254" stroke="#2e2e2e"/>
<path d="M451.374 153.317V157.254" stroke="#2e2e2e"/>
<path d="M435.135 153.317V157.254" stroke="#2e2e2e"/>
<path d="M467.612 153.317V157.254" stroke="#2e2e2e"/>
<path d="M424.31 153.317V157.254" stroke="#2e2e2e"/>
<path d="M456.786 153.317V157.254" stroke="#2e2e2e"/>
<path d="M440.548 153.317V157.254" stroke="#2e2e2e"/>
<path d="M473.025 153.317V157.254" stroke="#2e2e2e"/>
<path d="M429.723 148.396V157.254" stroke="#2e2e2e"/>
<path d="M462.199 148.396V157.254" stroke="#2e2e2e"/>
<path d="M445.96 136.587V157.254" stroke="#2e2e2e"/>
<path d="M418.897 194.651V198.588" stroke="#2e2e2e"/>
<path d="M451.374 194.651V198.588" stroke="#2e2e2e"/>
<path d="M435.135 194.651V198.588" stroke="#2e2e2e"/>
<path d="M467.612 194.651V198.588" stroke="#2e2e2e"/>
<path d="M424.31 194.651V198.588" stroke="#2e2e2e"/>
<path d="M456.786 194.651V198.588" stroke="#2e2e2e"/>
<path d="M440.548 194.651V198.588" stroke="#2e2e2e"/>
<path d="M473.025 194.651V198.588" stroke="#2e2e2e"/>
<path d="M429.723 189.73V198.588" stroke="#2e2e2e"/>
<path d="M462.199 189.73V198.588" stroke="#2e2e2e"/>
<path d="M445.96 177.921V198.588" stroke="#2e2e2e"/>
<path d="M480.897 69.6504V73.5869" stroke="#2e2e2e"/>
<path d="M513.374 69.6504V73.5869" stroke="#2e2e2e"/>
<path d="M497.135 69.6504V73.5869" stroke="#2e2e2e"/>
<path d="M529.612 69.6504V73.5869" stroke="#2e2e2e"/>
<path d="M486.31 69.6504V73.5869" stroke="#2e2e2e"/>
<path d="M518.787 69.6504V73.5869" stroke="#2e2e2e"/>
<path d="M502.549 69.6504V73.5869" stroke="#2e2e2e"/>
<path d="M535.025 69.6504V73.5869" stroke="#2e2e2e"/>
<path d="M491.723 64.7295V73.5867" stroke="#2e2e2e"/>
<path d="M524.2 64.7295V73.5867" stroke="#2e2e2e"/>
<path d="M507.961 52.9199V73.5868" stroke="#2e2e2e"/>
<path d="M480.897 111.984V115.921" stroke="#2e2e2e"/>
<path d="M513.374 111.984V115.921" stroke="#2e2e2e"/>
<path d="M497.135 111.984V115.921" stroke="#2e2e2e"/>
<path d="M529.612 111.984V115.921" stroke="#2e2e2e"/>
<path d="M486.31 111.984V115.921" stroke="#2e2e2e"/>
<path d="M518.787 111.984V115.921" stroke="#2e2e2e"/>
<path d="M502.549 111.984V115.921" stroke="#2e2e2e"/>
<path d="M535.025 111.984V115.921" stroke="#2e2e2e"/>
<path d="M491.723 107.063V115.921" stroke="#2e2e2e"/>
<path d="M524.2 107.063V115.921" stroke="#2e2e2e"/>
<path d="M507.961 95.2539V115.921" stroke="#2e2e2e"/>
<path d="M480.896 153.317V157.254" stroke="#2e2e2e"/>
<path d="M513.373 153.317V157.254" stroke="#2e2e2e"/>
<path d="M497.134 153.317V157.254" stroke="#2e2e2e"/>
<path d="M529.611 153.317V157.254" stroke="#2e2e2e"/>
<path d="M486.309 153.317V157.254" stroke="#2e2e2e"/>
<path d="M518.786 153.317V157.254" stroke="#2e2e2e"/>
<path d="M502.548 153.317V157.254" stroke="#2e2e2e"/>
<path d="M535.024 153.317V157.254" stroke="#2e2e2e"/>
<path d="M491.722 148.396V157.254" stroke="#2e2e2e"/>
<path d="M524.199 148.396V157.254" stroke="#2e2e2e"/>
<path d="M507.96 136.587V157.254" stroke="#2e2e2e"/>
<path d="M480.897 194.651V198.588" stroke="#2e2e2e"/>
<path d="M513.374 194.651V198.588" stroke="#2e2e2e"/>
<path d="M497.135 194.651V198.588" stroke="#2e2e2e"/>
<path d="M529.612 194.651V198.588" stroke="#2e2e2e"/>
<path d="M486.31 194.651V198.588" stroke="#2e2e2e"/>
<path d="M518.786 194.651V198.588" stroke="#2e2e2e"/>
<path d="M502.548 194.651V198.588" stroke="#2e2e2e"/>
<path d="M535.024 194.651V198.588" stroke="#2e2e2e"/>
<path d="M491.723 189.73V198.588" stroke="#2e2e2e"/>
<path d="M524.199 189.73V198.588" stroke="#2e2e2e"/>
<path d="M507.96 177.921V198.588" stroke="#2e2e2e"/>
<path d="M542.898 69.6504V73.5869" stroke="#2e2e2e"/>
<path d="M575.375 69.6504V73.5869" stroke="#2e2e2e"/>
<path d="M559.136 69.6504V73.5869" stroke="#2e2e2e"/>
<path d="M591.613 69.6504V73.5869" stroke="#2e2e2e"/>
<path d="M548.31 69.6504V73.5869" stroke="#2e2e2e"/>
<path d="M580.788 69.6504V73.5869" stroke="#2e2e2e"/>
<path d="M564.549 69.6504V73.5869" stroke="#2e2e2e"/>
<path d="M597.025 69.6504V73.5869" stroke="#2e2e2e"/>
<path d="M553.723 64.7295V73.5867" stroke="#2e2e2e"/>
<path d="M586.2 64.7295V73.5867" stroke="#2e2e2e"/>
<path d="M569.961 52.9199V73.5868" stroke="#2e2e2e"/>
<path d="M542.898 111.984V115.921" stroke="#2e2e2e"/>
<path d="M575.375 111.984V115.921" stroke="#2e2e2e"/>
<path d="M559.136 111.984V115.921" stroke="#2e2e2e"/>
<path d="M591.613 111.984V115.921" stroke="#2e2e2e"/>
<path d="M548.31 111.984V115.921" stroke="#2e2e2e"/>
<path d="M580.788 111.984V115.921" stroke="#2e2e2e"/>
<path d="M564.549 111.984V115.921" stroke="#2e2e2e"/>
<path d="M597.025 111.984V115.921" stroke="#2e2e2e"/>
<path d="M553.724 107.063V115.921" stroke="#2e2e2e"/>
<path d="M586.2 107.063V115.921" stroke="#2e2e2e"/>
<path d="M569.961 95.2539V115.921" stroke="#2e2e2e"/>
<path d="M542.898 153.317V157.254" stroke="#2e2e2e"/>
<path d="M575.375 153.317V157.254" stroke="#2e2e2e"/>
<path d="M559.136 153.317V157.254" stroke="#2e2e2e"/>
<path d="M591.613 153.317V157.254" stroke="#2e2e2e"/>
<path d="M548.31 153.317V157.254" stroke="#2e2e2e"/>
<path d="M580.788 153.317V157.254" stroke="#2e2e2e"/>
<path d="M564.549 153.317V157.254" stroke="#2e2e2e"/>
<path d="M597.025 153.317V157.254" stroke="#2e2e2e"/>
<path d="M553.723 148.396V157.254" stroke="#2e2e2e"/>
<path d="M586.2 148.396V157.254" stroke="#2e2e2e"/>
<path d="M569.961 136.587V157.254" stroke="#2e2e2e"/>
<path d="M542.898 194.651V198.588" stroke="#2e2e2e"/>
<path d="M575.375 194.651V198.588" stroke="#2e2e2e"/>
<path d="M559.136 194.651V198.588" stroke="#2e2e2e"/>
<path d="M591.613 194.651V198.588" stroke="#2e2e2e"/>
<path d="M548.31 194.651V198.588" stroke="#2e2e2e"/>
<path d="M580.788 194.651V198.588" stroke="#2e2e2e"/>
<path d="M564.549 194.651V198.588" stroke="#2e2e2e"/>
<path d="M597.025 194.651V198.588" stroke="#2e2e2e"/>
<path d="M553.724 189.73V198.588" stroke="#2e2e2e"/>
<path d="M586.2 189.73V198.588" stroke="#2e2e2e"/>
<path d="M569.961 177.921V198.588" stroke="#2e2e2e"/>
<path d="M604.898 69.6504V73.5869" stroke="#2e2e2e"/>
<path d="M637.375 69.6504V73.5869" stroke="#2e2e2e"/>
<path d="M621.136 69.6504V73.5869" stroke="#2e2e2e"/>
<path d="M653.613 69.6504V73.5869" stroke="#2e2e2e"/>
<path d="M610.31 69.6504V73.5869" stroke="#2e2e2e"/>
<path d="M642.787 69.6504V73.5869" stroke="#2e2e2e"/>
<path d="M626.549 69.6504V73.5869" stroke="#2e2e2e"/>
<path d="M659.025 69.6504V73.5869" stroke="#2e2e2e"/>
<path d="M615.724 64.7295V73.5867" stroke="#2e2e2e"/>
<path d="M648.199 64.7295V73.5867" stroke="#2e2e2e"/>
<path d="M631.961 52.9199V73.5868" stroke="#2e2e2e"/>
<path d="M604.898 111.984V115.92" stroke="#2e2e2e"/>
<path d="M637.375 111.984V115.92" stroke="#2e2e2e"/>
<path d="M621.136 111.984V115.92" stroke="#2e2e2e"/>
<path d="M653.613 111.984V115.92" stroke="#2e2e2e"/>
<path d="M610.31 111.984V115.92" stroke="#2e2e2e"/>
<path d="M642.787 111.984V115.92" stroke="#2e2e2e"/>
<path d="M626.549 111.984V115.92" stroke="#2e2e2e"/>
<path d="M659.025 111.984V115.92" stroke="#2e2e2e"/>
<path d="M615.724 107.063V115.921" stroke="#2e2e2e"/>
<path d="M648.199 107.063V115.921" stroke="#2e2e2e"/>
<path d="M631.961 95.2539V115.921" stroke="#2e2e2e"/>
<path d="M604.899 153.317V157.254" stroke="#2e2e2e"/>
<path d="M637.376 153.317V157.254" stroke="#2e2e2e"/>
<path d="M621.137 153.317V157.254" stroke="#2e2e2e"/>
<path d="M653.614 153.317V157.254" stroke="#2e2e2e"/>
<path d="M610.311 153.317V157.254" stroke="#2e2e2e"/>
<path d="M642.788 153.317V157.254" stroke="#2e2e2e"/>
<path d="M626.55 153.317V157.254" stroke="#2e2e2e"/>
<path d="M659.026 153.317V157.254" stroke="#2e2e2e"/>
<path d="M615.725 148.396V157.254" stroke="#2e2e2e"/>
<path d="M648.201 148.397V157.254" stroke="#2e2e2e"/>
<path d="M631.963 136.587V157.254" stroke="#2e2e2e"/>
<path d="M604.899 194.652V198.588" stroke="#2e2e2e"/>
<path d="M637.375 194.652V198.588" stroke="#2e2e2e"/>
<path d="M621.137 194.652V198.588" stroke="#2e2e2e"/>
<path d="M653.614 194.652V198.588" stroke="#2e2e2e"/>
<path d="M610.311 194.652V198.588" stroke="#2e2e2e"/>
<path d="M642.788 194.652V198.588" stroke="#2e2e2e"/>
<path d="M626.55 194.652V198.588" stroke="#2e2e2e"/>
<path d="M659.026 194.652V198.588" stroke="#2e2e2e"/>
<path d="M615.725 189.731V198.588" stroke="#2e2e2e"/>
<path d="M648.2 189.731V198.589" stroke="#2e2e2e"/>
<path d="M631.962 177.921V198.588" stroke="#2e2e2e"/>
<path d="M666.899 69.6504V73.5869" stroke="#2e2e2e"/>
<path d="M699.376 69.6504V73.5869" stroke="#2e2e2e"/>
<path d="M683.138 69.6504V73.5869" stroke="#2e2e2e"/>
<path d="M715.614 69.6504V73.5869" stroke="#2e2e2e"/>
<path d="M672.312 69.6504V73.5869" stroke="#2e2e2e"/>
<path d="M704.789 69.6504V73.5869" stroke="#2e2e2e"/>
<path d="M688.55 69.6504V73.5869" stroke="#2e2e2e"/>
<path d="M721.027 69.6504V73.5869" stroke="#2e2e2e"/>
<path d="M677.725 64.7295V73.5867" stroke="#2e2e2e"/>
<path d="M710.201 64.7295V73.5867" stroke="#2e2e2e"/>
<path d="M693.962 52.9199V73.5868" stroke="#2e2e2e"/>
<path d="M666.899 111.984V115.92" stroke="#2e2e2e"/>
<path d="M699.376 111.984V115.92" stroke="#2e2e2e"/>
<path d="M683.138 111.984V115.92" stroke="#2e2e2e"/>
<path d="M715.614 111.984V115.92" stroke="#2e2e2e"/>
<path d="M672.312 111.984V115.92" stroke="#2e2e2e"/>
<path d="M704.788 111.984V115.92" stroke="#2e2e2e"/>
<path d="M688.55 111.984V115.92" stroke="#2e2e2e"/>
<path d="M721.027 111.984V115.92" stroke="#2e2e2e"/>
<path d="M677.725 107.063V115.921" stroke="#2e2e2e"/>
<path d="M710.201 107.063V115.921" stroke="#2e2e2e"/>
<path d="M693.962 95.2539V115.921" stroke="#2e2e2e"/>
<path d="M666.899 153.318V157.255" stroke="#2e2e2e"/>
<path d="M699.376 153.318V157.255" stroke="#2e2e2e"/>
<path d="M683.138 153.318V157.255" stroke="#2e2e2e"/>
<path d="M715.614 153.318V157.255" stroke="#2e2e2e"/>
<path d="M672.313 153.318V157.255" stroke="#2e2e2e"/>
<path d="M704.789 153.318V157.255" stroke="#2e2e2e"/>
<path d="M688.551 153.318V157.255" stroke="#2e2e2e"/>
<path d="M721.028 153.318V157.255" stroke="#2e2e2e"/>
<path d="M677.725 148.397V157.255" stroke="#2e2e2e"/>
<path d="M710.202 148.397V157.255" stroke="#2e2e2e"/>
<path d="M693.963 136.588V157.255" stroke="#2e2e2e"/>
<path d="M666.899 194.652V198.589" stroke="#2e2e2e"/>
<path d="M699.376 194.652V198.589" stroke="#2e2e2e"/>
<path d="M683.138 194.652V198.589" stroke="#2e2e2e"/>
<path d="M715.614 194.652V198.589" stroke="#2e2e2e"/>
<path d="M672.312 194.652V198.589" stroke="#2e2e2e"/>
<path d="M704.788 194.652V198.589" stroke="#2e2e2e"/>
<path d="M688.55 194.652V198.589" stroke="#2e2e2e"/>
<path d="M721.027 194.652V198.589" stroke="#2e2e2e"/>
<path d="M677.725 189.731V198.589" stroke="#2e2e2e"/>
<path d="M710.201 189.731V198.589" stroke="#2e2e2e"/>
<path d="M693.962 177.922V198.589" stroke="#2e2e2e"/>
<path d="M728.9 69.6504V73.5869" stroke="#2e2e2e"/>
<path d="M761.377 69.6504V73.5869" stroke="#2e2e2e"/>
<path d="M745.138 69.6504V73.5869" stroke="#2e2e2e"/>
<path d="M777.615 69.6504V73.5869" stroke="#2e2e2e"/>
<path d="M734.312 69.6504V73.5869" stroke="#2e2e2e"/>
<path d="M766.789 69.6504V73.5869" stroke="#2e2e2e"/>
<path d="M750.551 69.6504V73.5869" stroke="#2e2e2e"/>
<path d="M783.027 69.6504V73.5869" stroke="#2e2e2e"/>
<path d="M739.726 64.7295V73.5867" stroke="#2e2e2e"/>
<path d="M772.202 64.7295V73.5867" stroke="#2e2e2e"/>
<path d="M755.963 52.9199V73.5868" stroke="#2e2e2e"/>
<path d="M728.9 111.984V115.92" stroke="#2e2e2e"/>
<path d="M761.377 111.984V115.92" stroke="#2e2e2e"/>
<path d="M745.138 111.984V115.92" stroke="#2e2e2e"/>
<path d="M777.615 111.984V115.92" stroke="#2e2e2e"/>
<path d="M734.312 111.984V115.92" stroke="#2e2e2e"/>
<path d="M766.789 111.984V115.92" stroke="#2e2e2e"/>
<path d="M750.551 111.984V115.92" stroke="#2e2e2e"/>
<path d="M783.027 111.984V115.92" stroke="#2e2e2e"/>
<path d="M739.726 107.063V115.92" stroke="#2e2e2e"/>
<path d="M772.202 107.063V115.92" stroke="#2e2e2e"/>
<path d="M755.963 95.2529V115.92" stroke="#2e2e2e"/>
<path d="M728.9 153.318V157.255" stroke="#2e2e2e"/>
<path d="M761.377 153.318V157.255" stroke="#2e2e2e"/>
<path d="M745.138 153.318V157.255" stroke="#2e2e2e"/>
<path d="M777.615 153.318V157.255" stroke="#2e2e2e"/>
<path d="M734.312 153.318V157.255" stroke="#2e2e2e"/>
<path d="M766.789 153.318V157.255" stroke="#2e2e2e"/>
<path d="M750.551 153.318V157.255" stroke="#2e2e2e"/>
<path d="M783.027 153.318V157.255" stroke="#2e2e2e"/>
<path d="M739.726 148.397V157.255" stroke="#2e2e2e"/>
<path d="M772.202 148.397V157.255" stroke="#2e2e2e"/>
<path d="M755.963 136.588V157.255" stroke="#2e2e2e"/>
<path d="M728.9 194.651V198.588" stroke="#2e2e2e"/>
<path d="M761.377 194.651V198.588" stroke="#2e2e2e"/>
<path d="M745.138 194.651V198.588" stroke="#2e2e2e"/>
<path d="M777.615 194.651V198.588" stroke="#2e2e2e"/>
<path d="M734.312 194.651V198.588" stroke="#2e2e2e"/>
<path d="M766.789 194.651V198.588" stroke="#2e2e2e"/>
<path d="M750.551 194.651V198.588" stroke="#2e2e2e"/>
<path d="M783.027 194.651V198.588" stroke="#2e2e2e"/>
<path d="M739.726 189.73V198.588" stroke="#2e2e2e"/>
<path d="M772.202 189.73V198.588" stroke="#2e2e2e"/>
<path d="M755.963 177.921V198.588" stroke="#2e2e2e"/>
<path d="M790.9 69.6504V73.5869" stroke="#2e2e2e"/>
<path d="M823.377 69.6504V73.5869" stroke="#2e2e2e"/>
<path d="M807.138 69.6504V73.5869" stroke="#2e2e2e"/>
<path d="M839.615 69.6504V73.5869" stroke="#2e2e2e"/>
<path d="M796.313 69.6504V73.5869" stroke="#2e2e2e"/>
<path d="M828.789 69.6504V73.5869" stroke="#2e2e2e"/>
<path d="M812.552 69.6504V73.5869" stroke="#2e2e2e"/>
<path d="M845.028 69.6504V73.5869" stroke="#2e2e2e"/>
<path d="M801.726 64.7295V73.5867" stroke="#2e2e2e"/>
<path d="M834.203 64.7295V73.5867" stroke="#2e2e2e"/>
<path d="M817.964 52.9199V73.5868" stroke="#2e2e2e"/>
<path d="M790.9 111.984V115.921" stroke="#2e2e2e"/>
<path d="M823.377 111.984V115.921" stroke="#2e2e2e"/>
<path d="M807.138 111.984V115.921" stroke="#2e2e2e"/>
<path d="M839.615 111.984V115.921" stroke="#2e2e2e"/>
<path d="M796.313 111.984V115.921" stroke="#2e2e2e"/>
<path d="M828.789 111.984V115.921" stroke="#2e2e2e"/>
<path d="M812.552 111.984V115.921" stroke="#2e2e2e"/>
<path d="M845.028 111.984V115.921" stroke="#2e2e2e"/>
<path d="M801.726 107.063V115.921" stroke="#2e2e2e"/>
<path d="M834.203 107.063V115.921" stroke="#2e2e2e"/>
<path d="M817.964 95.2539V115.921" stroke="#2e2e2e"/>
<path d="M790.9 153.317V157.254" stroke="#2e2e2e"/>
<path d="M823.377 153.317V157.254" stroke="#2e2e2e"/>
<path d="M807.138 153.317V157.254" stroke="#2e2e2e"/>
<path d="M839.615 153.317V157.254" stroke="#2e2e2e"/>
<path d="M796.313 153.317V157.254" stroke="#2e2e2e"/>
<path d="M828.789 153.317V157.254" stroke="#2e2e2e"/>
<path d="M812.551 153.317V157.254" stroke="#2e2e2e"/>
<path d="M845.027 153.317V157.254" stroke="#2e2e2e"/>
<path d="M801.726 148.396V157.254" stroke="#2e2e2e"/>
<path d="M834.203 148.396V157.254" stroke="#2e2e2e"/>
<path d="M817.964 136.587V157.254" stroke="#2e2e2e"/>
<path d="M790.9 194.651V198.588" stroke="#2e2e2e"/>
<path d="M823.377 194.651V198.588" stroke="#2e2e2e"/>
<path d="M807.138 194.651V198.588" stroke="#2e2e2e"/>
<path d="M839.615 194.651V198.588" stroke="#2e2e2e"/>
<path d="M796.313 194.651V198.588" stroke="#2e2e2e"/>
<path d="M828.789 194.651V198.588" stroke="#2e2e2e"/>
<path d="M812.551 194.651V198.588" stroke="#2e2e2e"/>
<path d="M845.027 194.651V198.588" stroke="#2e2e2e"/>
<path d="M801.726 189.73V198.588" stroke="#2e2e2e"/>
<path d="M834.203 189.73V198.588" stroke="#2e2e2e"/>
<path d="M817.964 177.921V198.588" stroke="#2e2e2e"/>
<path d="M852.901 69.6504V73.5869" stroke="#2e2e2e"/>
<path d="M885.378 69.6504V73.5869" stroke="#2e2e2e"/>
<path d="M869.139 69.6504V73.5869" stroke="#2e2e2e"/>
<path d="M901.616 69.6504V73.5869" stroke="#2e2e2e"/>
<path d="M858.313 69.6504V73.5869" stroke="#2e2e2e"/>
<path d="M890.79 69.6504V73.5869" stroke="#2e2e2e"/>
<path d="M874.552 69.6504V73.5869" stroke="#2e2e2e"/>
<path d="M907.028 69.6504V73.5869" stroke="#2e2e2e"/>
<path d="M863.726 64.7295V73.5867" stroke="#2e2e2e"/>
<path d="M896.203 64.7295V73.5867" stroke="#2e2e2e"/>
<path d="M879.964 52.9199V73.5868" stroke="#2e2e2e"/>
<path d="M852.901 111.984V115.92" stroke="#2e2e2e"/>
<path d="M885.378 111.984V115.92" stroke="#2e2e2e"/>
<path d="M869.139 111.984V115.92" stroke="#2e2e2e"/>
<path d="M901.616 111.984V115.92" stroke="#2e2e2e"/>
<path d="M858.313 111.984V115.92" stroke="#2e2e2e"/>
<path d="M890.79 111.984V115.92" stroke="#2e2e2e"/>
<path d="M874.552 111.984V115.92" stroke="#2e2e2e"/>
<path d="M907.028 111.984V115.92" stroke="#2e2e2e"/>
<path d="M863.727 107.063V115.921" stroke="#2e2e2e"/>
<path d="M896.203 107.063V115.921" stroke="#2e2e2e"/>
<path d="M879.964 95.2539V115.921" stroke="#2e2e2e"/>
<path d="M852.901 153.317V157.254" stroke="#2e2e2e"/>
<path d="M885.378 153.317V157.254" stroke="#2e2e2e"/>
<path d="M869.14 153.317V157.254" stroke="#2e2e2e"/>
<path d="M901.616 153.317V157.254" stroke="#2e2e2e"/>
<path d="M858.314 153.317V157.254" stroke="#2e2e2e"/>
<path d="M890.791 153.317V157.254" stroke="#2e2e2e"/>
<path d="M874.553 153.317V157.254" stroke="#2e2e2e"/>
<path d="M907.029 153.317V157.254" stroke="#2e2e2e"/>
<path d="M863.727 148.396V157.254" stroke="#2e2e2e"/>
<path d="M896.204 148.396V157.254" stroke="#2e2e2e"/>
<path d="M879.965 136.587V157.254" stroke="#2e2e2e"/>
<path d="M852.901 194.651V198.588" stroke="#2e2e2e"/>
<path d="M885.378 194.651V198.588" stroke="#2e2e2e"/>
<path d="M869.14 194.651V198.588" stroke="#2e2e2e"/>
<path d="M901.616 194.651V198.588" stroke="#2e2e2e"/>
<path d="M858.314 194.651V198.588" stroke="#2e2e2e"/>
<path d="M890.79 194.651V198.588" stroke="#2e2e2e"/>
<path d="M874.553 194.651V198.588" stroke="#2e2e2e"/>
<path d="M907.029 194.651V198.588" stroke="#2e2e2e"/>
<path d="M863.727 189.73V198.588" stroke="#2e2e2e"/>
<path d="M896.204 189.73V198.588" stroke="#2e2e2e"/>
<path d="M879.965 177.921V198.588" stroke="#2e2e2e"/>
<path d="M914.902 69.6504V73.5869" stroke="#2e2e2e"/>
<path d="M947.379 69.6504V73.5869" stroke="#2e2e2e"/>
<path d="M931.14 69.6504V73.5869" stroke="#2e2e2e"/>
<path d="M963.617 69.6504V73.5869" stroke="#2e2e2e"/>
<path d="M920.315 69.6504V73.5869" stroke="#2e2e2e"/>
<path d="M952.791 69.6504V73.5869" stroke="#2e2e2e"/>
<path d="M936.554 69.6504V73.5869" stroke="#2e2e2e"/>
<path d="M969.03 69.6504V73.5869" stroke="#2e2e2e"/>
<path d="M925.727 64.7295V73.5867" stroke="#2e2e2e"/>
<path d="M958.205 64.7295V73.5867" stroke="#2e2e2e"/>
<path d="M941.966 52.9199V73.5868" stroke="#2e2e2e"/>
<path d="M914.902 111.984V115.921" stroke="#2e2e2e"/>
<path d="M947.379 111.984V115.921" stroke="#2e2e2e"/>
<path d="M931.14 111.984V115.921" stroke="#2e2e2e"/>
<path d="M963.617 111.984V115.921" stroke="#2e2e2e"/>
<path d="M920.315 111.984V115.921" stroke="#2e2e2e"/>
<path d="M952.791 111.984V115.921" stroke="#2e2e2e"/>
<path d="M936.554 111.984V115.921" stroke="#2e2e2e"/>
<path d="M969.03 111.984V115.921" stroke="#2e2e2e"/>
<path d="M925.727 107.063V115.921" stroke="#2e2e2e"/>
<path d="M958.205 107.063V115.921" stroke="#2e2e2e"/>
<path d="M941.966 95.2539V115.921" stroke="#2e2e2e"/>
<path d="M914.901 153.317V157.254" stroke="#2e2e2e"/>
<path d="M947.378 153.317V157.254" stroke="#2e2e2e"/>
<path d="M931.139 153.317V157.254" stroke="#2e2e2e"/>
<path d="M963.616 153.317V157.254" stroke="#2e2e2e"/>
<path d="M920.313 153.317V157.254" stroke="#2e2e2e"/>
<path d="M952.79 153.317V157.254" stroke="#2e2e2e"/>
<path d="M936.552 153.317V157.254" stroke="#2e2e2e"/>
<path d="M969.028 153.317V157.254" stroke="#2e2e2e"/>
<path d="M925.727 148.396V157.254" stroke="#2e2e2e"/>
<path d="M958.203 148.396V157.254" stroke="#2e2e2e"/>
<path d="M941.964 136.587V157.254" stroke="#2e2e2e"/>
<path d="M914.901 194.651V198.588" stroke="#2e2e2e"/>
<path d="M947.378 194.651V198.588" stroke="#2e2e2e"/>
<path d="M931.139 194.651V198.588" stroke="#2e2e2e"/>
<path d="M963.616 194.651V198.588" stroke="#2e2e2e"/>
<path d="M920.314 194.651V198.588" stroke="#2e2e2e"/>
<path d="M952.79 194.651V198.588" stroke="#2e2e2e"/>
<path d="M936.553 194.651V198.588" stroke="#2e2e2e"/>
<path d="M969.029 194.651V198.588" stroke="#2e2e2e"/>
<path d="M925.727 189.73V198.588" stroke="#2e2e2e"/>
<path d="M958.204 189.73V198.588" stroke="#2e2e2e"/>
<path d="M941.965 177.921V198.588" stroke="#2e2e2e"/>
<path d="M976.902 69.6504V73.5869" stroke="#2e2e2e"/>
<path d="M1009.38 69.6504V73.5869" stroke="#2e2e2e"/>
<path d="M993.14 69.6504V73.5869" stroke="#2e2e2e"/>
<path d="M1025.62 69.6504V73.5869" stroke="#2e2e2e"/>
<path d="M982.315 69.6504V73.5869" stroke="#2e2e2e"/>
<path d="M1014.8 69.6504V73.5869" stroke="#2e2e2e"/>
<path d="M998.554 69.6504V73.5869" stroke="#2e2e2e"/>
<path d="M1031.03 69.6504V73.5869" stroke="#2e2e2e"/>
<path d="M987.728 64.7295V73.5867" stroke="#2e2e2e"/>
<path d="M1020.21 64.7295V73.5867" stroke="#2e2e2e"/>
<path d="M1003.97 52.9199V73.5868" stroke="#2e2e2e"/>
<path d="M976.902 111.984V115.921" stroke="#2e2e2e"/>
<path d="M1009.38 111.984V115.921" stroke="#2e2e2e"/>
<path d="M993.14 111.984V115.921" stroke="#2e2e2e"/>
<path d="M1025.62 111.984V115.921" stroke="#2e2e2e"/>
<path d="M982.315 111.984V115.921" stroke="#2e2e2e"/>
<path d="M1014.8 111.984V115.921" stroke="#2e2e2e"/>
<path d="M998.554 111.984V115.921" stroke="#2e2e2e"/>
<path d="M1031.03 111.984V115.921" stroke="#2e2e2e"/>
<path d="M987.728 107.063V115.921" stroke="#2e2e2e"/>
<path d="M1020.21 107.063V115.921" stroke="#2e2e2e"/>
<path d="M1003.97 95.2539V115.921" stroke="#2e2e2e"/>
<path d="M976.902 153.317V157.254" stroke="#2e2e2e"/>
<path d="M1009.38 153.317V157.254" stroke="#2e2e2e"/>
<path d="M993.14 153.317V157.254" stroke="#2e2e2e"/>
<path d="M1025.62 153.317V157.254" stroke="#2e2e2e"/>
<path d="M982.315 153.317V157.254" stroke="#2e2e2e"/>
<path d="M1014.8 153.317V157.254" stroke="#2e2e2e"/>
<path d="M998.554 153.317V157.254" stroke="#2e2e2e"/>
<path d="M1031.03 153.317V157.254" stroke="#2e2e2e"/>
<path d="M987.728 148.396V157.254" stroke="#2e2e2e"/>
<path d="M1020.21 148.396V157.254" stroke="#2e2e2e"/>
<path d="M1003.97 136.587V157.254" stroke="#2e2e2e"/>
<path d="M976.902 194.651V198.588" stroke="#2e2e2e"/>
<path d="M1009.38 194.651V198.588" stroke="#2e2e2e"/>
<path d="M993.14 194.651V198.588" stroke="#2e2e2e"/>
<path d="M1025.62 194.651V198.588" stroke="#2e2e2e"/>
<path d="M982.315 194.651V198.588" stroke="#2e2e2e"/>
<path d="M1014.8 194.651V198.588" stroke="#2e2e2e"/>
<path d="M998.554 194.651V198.588" stroke="#2e2e2e"/>
<path d="M1031.03 194.651V198.588" stroke="#2e2e2e"/>
<path d="M987.728 189.73V198.588" stroke="#2e2e2e"/>
<path d="M1020.21 189.73V198.588" stroke="#2e2e2e"/>
<path d="M1003.97 177.921V198.588" stroke="#2e2e2e"/>
<path d="M1038.91 69.6504V73.5869" stroke="#2e2e2e"/>
<path d="M1071.38 69.6504V73.5869" stroke="#2e2e2e"/>
<path d="M1055.15 69.6504V73.5869" stroke="#2e2e2e"/>
<path d="M1087.62 69.6504V73.5869" stroke="#2e2e2e"/>
<path d="M1044.32 69.6504V73.5869" stroke="#2e2e2e"/>
<path d="M1076.8 69.6504V73.5869" stroke="#2e2e2e"/>
<path d="M1060.56 69.6504V73.5869" stroke="#2e2e2e"/>
<path d="M1093.03 69.6504V73.5869" stroke="#2e2e2e"/>
<path d="M1049.73 64.7295V73.5867" stroke="#2e2e2e"/>
<path d="M1082.21 64.7295V73.5867" stroke="#2e2e2e"/>
<path d="M1065.97 52.9199V73.5868" stroke="#2e2e2e"/>
<path d="M1038.91 111.984V115.92" stroke="#2e2e2e"/>
<path d="M1071.38 111.984V115.92" stroke="#2e2e2e"/>
<path d="M1055.15 111.984V115.92" stroke="#2e2e2e"/>
<path d="M1087.62 111.984V115.92" stroke="#2e2e2e"/>
<path d="M1044.32 111.984V115.92" stroke="#2e2e2e"/>
<path d="M1076.8 111.984V115.92" stroke="#2e2e2e"/>
<path d="M1060.56 111.984V115.92" stroke="#2e2e2e"/>
<path d="M1093.03 111.984V115.92" stroke="#2e2e2e"/>
<path d="M1049.73 107.063V115.921" stroke="#2e2e2e"/>
<path d="M1082.21 107.063V115.921" stroke="#2e2e2e"/>
<path d="M1065.97 95.2539V115.921" stroke="#2e2e2e"/>
<path d="M1038.91 153.317V157.254" stroke="#2e2e2e"/>
<path d="M1071.38 153.317V157.254" stroke="#2e2e2e"/>
<path d="M1055.15 153.317V157.254" stroke="#2e2e2e"/>
<path d="M1087.62 153.317V157.254" stroke="#2e2e2e"/>
<path d="M1044.32 153.317V157.254" stroke="#2e2e2e"/>
<path d="M1076.8 153.317V157.254" stroke="#2e2e2e"/>
<path d="M1060.56 153.317V157.254" stroke="#2e2e2e"/>
<path d="M1093.04 153.317V157.254" stroke="#2e2e2e"/>
<path d="M1049.73 148.396V157.254" stroke="#2e2e2e"/>
<path d="M1082.21 148.396V157.254" stroke="#2e2e2e"/>
<path d="M1065.97 136.587V157.254" stroke="#2e2e2e"/>
<path d="M1038.91 194.651V198.588" stroke="#2e2e2e"/>
<path d="M1071.38 194.651V198.588" stroke="#2e2e2e"/>
<path d="M1055.15 194.651V198.588" stroke="#2e2e2e"/>
<path d="M1087.62 194.651V198.588" stroke="#2e2e2e"/>
<path d="M1044.32 194.651V198.588" stroke="#2e2e2e"/>
<path d="M1076.8 194.651V198.588" stroke="#2e2e2e"/>
<path d="M1060.56 194.651V198.588" stroke="#2e2e2e"/>
<path d="M1093.03 194.651V198.588" stroke="#2e2e2e"/>
<path d="M1049.73 189.73V198.588" stroke="#2e2e2e"/>
<path d="M1082.21 189.73V198.588" stroke="#2e2e2e"/>
<path d="M1065.97 177.921V198.588" stroke="#2e2e2e"/>
<path d="M1100.91 69.6504V73.5869" stroke="#2e2e2e"/>
<path d="M1133.38 69.6504V73.5869" stroke="#2e2e2e"/>
<path d="M1117.15 69.6504V73.5869" stroke="#2e2e2e"/>
<path d="M1149.62 69.6504V73.5869" stroke="#2e2e2e"/>
<path d="M1106.32 69.6504V73.5869" stroke="#2e2e2e"/>
<path d="M1138.8 69.6504V73.5869" stroke="#2e2e2e"/>
<path d="M1122.56 69.6504V73.5869" stroke="#2e2e2e"/>
<path d="M1155.04 69.6504V73.5869" stroke="#2e2e2e"/>
<path d="M1111.73 64.7295V73.5867" stroke="#2e2e2e"/>
<path d="M1144.21 64.7295V73.5867" stroke="#2e2e2e"/>
<path d="M1127.97 52.9199V73.5868" stroke="#2e2e2e"/>
<path d="M1100.91 111.984V115.92" stroke="#2e2e2e"/>
<path d="M1133.38 111.984V115.92" stroke="#2e2e2e"/>
<path d="M1117.15 111.984V115.92" stroke="#2e2e2e"/>
<path d="M1149.62 111.984V115.92" stroke="#2e2e2e"/>
<path d="M1106.32 111.984V115.92" stroke="#2e2e2e"/>
<path d="M1138.8 111.984V115.92" stroke="#2e2e2e"/>
<path d="M1122.56 111.984V115.92" stroke="#2e2e2e"/>
<path d="M1155.04 111.984V115.92" stroke="#2e2e2e"/>
<path d="M1111.73 107.063V115.921" stroke="#2e2e2e"/>
<path d="M1144.21 107.063V115.921" stroke="#2e2e2e"/>
<path d="M1127.97 95.2539V115.921" stroke="#2e2e2e"/>
<path d="M1100.91 153.317V157.254" stroke="#2e2e2e"/>
<path d="M1133.38 153.317V157.254" stroke="#2e2e2e"/>
<path d="M1117.15 153.317V157.254" stroke="#2e2e2e"/>
<path d="M1149.62 153.317V157.254" stroke="#2e2e2e"/>
<path d="M1106.32 153.317V157.254" stroke="#2e2e2e"/>
<path d="M1138.8 153.317V157.254" stroke="#2e2e2e"/>
<path d="M1122.56 153.317V157.254" stroke="#2e2e2e"/>
<path d="M1155.04 153.317V157.254" stroke="#2e2e2e"/>
<path d="M1111.73 148.396V157.254" stroke="#2e2e2e"/>
<path d="M1144.21 148.396V157.254" stroke="#2e2e2e"/>
<path d="M1127.97 136.587V157.254" stroke="#2e2e2e"/>
<path d="M1100.91 194.651V198.588" stroke="#2e2e2e"/>
<path d="M1133.38 194.651V198.588" stroke="#2e2e2e"/>
<path d="M1117.15 194.651V198.588" stroke="#2e2e2e"/>
<path d="M1149.62 194.651V198.588" stroke="#2e2e2e"/>
<path d="M1106.32 194.651V198.588" stroke="#2e2e2e"/>
<path d="M1138.8 194.651V198.588" stroke="#2e2e2e"/>
<path d="M1122.56 194.651V198.588" stroke="#2e2e2e"/>
<path d="M1155.04 194.651V198.588" stroke="#2e2e2e"/>
<path d="M1111.73 189.73V198.588" stroke="#2e2e2e"/>
<path d="M1144.21 189.73V198.588" stroke="#2e2e2e"/>
<path d="M1127.97 177.921V198.588" stroke="#2e2e2e"/>
<path d="M1162.91 69.6504V73.5869" stroke="#2e2e2e"/>
<path d="M1195.39 69.6504V73.5869" stroke="#2e2e2e"/>
<path d="M1179.15 69.6504V73.5869" stroke="#2e2e2e"/>
<path d="M1211.62 69.6504V73.5869" stroke="#2e2e2e"/>
<path d="M1168.32 69.6504V73.5869" stroke="#2e2e2e"/>
<path d="M1200.8 69.6504V73.5869" stroke="#2e2e2e"/>
<path d="M1184.56 69.6504V73.5869" stroke="#2e2e2e"/>
<path d="M1217.04 69.6504V73.5869" stroke="#2e2e2e"/>
<path d="M1173.73 64.7295V73.5867" stroke="#2e2e2e"/>
<path d="M1206.21 64.7295V73.5867" stroke="#2e2e2e"/>
<path d="M1189.97 52.9199V73.5868" stroke="#2e2e2e"/>
<path d="M1162.91 111.984V115.921" stroke="#2e2e2e"/>
<path d="M1195.39 111.984V115.921" stroke="#2e2e2e"/>
<path d="M1179.15 111.984V115.921" stroke="#2e2e2e"/>
<path d="M1211.62 111.984V115.921" stroke="#2e2e2e"/>
<path d="M1168.32 111.984V115.921" stroke="#2e2e2e"/>
<path d="M1200.8 111.984V115.921" stroke="#2e2e2e"/>
<path d="M1184.56 111.984V115.921" stroke="#2e2e2e"/>
<path d="M1217.04 111.984V115.921" stroke="#2e2e2e"/>
<path d="M1173.73 107.063V115.921" stroke="#2e2e2e"/>
<path d="M1206.21 107.063V115.921" stroke="#2e2e2e"/>
<path d="M1189.97 95.2539V115.921" stroke="#2e2e2e"/>
<path d="M1162.91 153.317V157.254" stroke="#2e2e2e"/>
<path d="M1195.39 153.317V157.254" stroke="#2e2e2e"/>
<path d="M1179.15 153.317V157.254" stroke="#2e2e2e"/>
<path d="M1211.62 153.317V157.254" stroke="#2e2e2e"/>
<path d="M1168.32 153.317V157.254" stroke="#2e2e2e"/>
<path d="M1200.8 153.317V157.254" stroke="#2e2e2e"/>
<path d="M1184.56 153.317V157.254" stroke="#2e2e2e"/>
<path d="M1217.04 153.317V157.254" stroke="#2e2e2e"/>
<path d="M1173.73 148.396V157.254" stroke="#2e2e2e"/>
<path d="M1206.21 148.396V157.254" stroke="#2e2e2e"/>
<path d="M1189.97 136.587V157.254" stroke="#2e2e2e"/>
<path d="M1162.91 194.651V198.588" stroke="#2e2e2e"/>
<path d="M1195.39 194.651V198.588" stroke="#2e2e2e"/>
<path d="M1179.15 194.651V198.588" stroke="#2e2e2e"/>
<path d="M1211.62 194.651V198.588" stroke="#2e2e2e"/>
<path d="M1168.32 194.651V198.588" stroke="#2e2e2e"/>
<path d="M1200.8 194.651V198.588" stroke="#2e2e2e"/>
<path d="M1184.56 194.651V198.588" stroke="#2e2e2e"/>
<path d="M1217.04 194.651V198.588" stroke="#2e2e2e"/>
<path d="M1173.73 189.73V198.588" stroke="#2e2e2e"/>
<path d="M1206.21 189.73V198.588" stroke="#2e2e2e"/>
<path d="M1189.97 177.921V198.588" stroke="#2e2e2e"/>
<path d="M1224.91 69.6504V73.5869" stroke="#2e2e2e"/>
<path d="M1257.39 69.6504V73.5869" stroke="#2e2e2e"/>
<path d="M1241.15 69.6504V73.5869" stroke="#2e2e2e"/>
<path d="M1273.62 69.6504V73.5869" stroke="#2e2e2e"/>
<path d="M1230.32 69.6504V73.5869" stroke="#2e2e2e"/>
<path d="M1262.8 69.6504V73.5869" stroke="#2e2e2e"/>
<path d="M1246.56 69.6504V73.5869" stroke="#2e2e2e"/>
<path d="M1279.04 69.6504V73.5869" stroke="#2e2e2e"/>
<path d="M1235.73 64.7295V73.5867" stroke="#2e2e2e"/>
<path d="M1268.21 64.7295V73.5867" stroke="#2e2e2e"/>
<path d="M1251.97 52.9199V73.5868" stroke="#2e2e2e"/>
<path d="M1224.91 111.984V115.921" stroke="#2e2e2e"/>
<path d="M1257.39 111.984V115.921" stroke="#2e2e2e"/>
<path d="M1241.15 111.984V115.921" stroke="#2e2e2e"/>
<path d="M1273.62 111.984V115.921" stroke="#2e2e2e"/>
<path d="M1230.32 111.984V115.921" stroke="#2e2e2e"/>
<path d="M1262.8 111.984V115.921" stroke="#2e2e2e"/>
<path d="M1246.56 111.984V115.921" stroke="#2e2e2e"/>
<path d="M1279.04 111.984V115.921" stroke="#2e2e2e"/>
<path d="M1235.73 107.063V115.921" stroke="#2e2e2e"/>
<path d="M1268.21 107.063V115.921" stroke="#2e2e2e"/>
<path d="M1251.97 95.2539V115.921" stroke="#2e2e2e"/>
<path d="M1224.91 153.317V157.254" stroke="#2e2e2e"/>
<path d="M1257.39 153.317V157.254" stroke="#2e2e2e"/>
<path d="M1241.15 153.317V157.254" stroke="#2e2e2e"/>
<path d="M1273.63 153.317V157.254" stroke="#2e2e2e"/>
<path d="M1230.32 153.317V157.254" stroke="#2e2e2e"/>
<path d="M1262.8 153.317V157.254" stroke="#2e2e2e"/>
<path d="M1246.56 153.317V157.254" stroke="#2e2e2e"/>
<path d="M1279.04 153.317V157.254" stroke="#2e2e2e"/>
<path d="M1235.74 148.396V157.254" stroke="#2e2e2e"/>
<path d="M1268.21 148.396V157.254" stroke="#2e2e2e"/>
<path d="M1251.97 136.587V157.254" stroke="#2e2e2e"/>
<path d="M1224.91 194.651V198.588" stroke="#2e2e2e"/>
<path d="M1257.39 194.651V198.588" stroke="#2e2e2e"/>
<path d="M1241.15 194.651V198.588" stroke="#2e2e2e"/>
<path d="M1273.62 194.651V198.588" stroke="#2e2e2e"/>
<path d="M1230.32 194.651V198.588" stroke="#2e2e2e"/>
<path d="M1262.8 194.651V198.588" stroke="#2e2e2e"/>
<path d="M1246.56 194.651V198.588" stroke="#2e2e2e"/>
<path d="M1279.04 194.651V198.588" stroke="#2e2e2e"/>
<path d="M1235.73 189.73V198.588" stroke="#2e2e2e"/>
<path d="M1268.21 189.73V198.588" stroke="#2e2e2e"/>
<path d="M1251.97 177.921V198.588" stroke="#2e2e2e"/>
<path d="M1286.91 69.6504V73.5869" stroke="#2e2e2e"/>
<path d="M1319.39 69.6504V73.5869" stroke="#2e2e2e"/>
<path d="M1303.15 69.6504V73.5869" stroke="#2e2e2e"/>
<path d="M1335.62 69.6504V73.5869" stroke="#2e2e2e"/>
<path d="M1292.32 69.6504V73.5869" stroke="#2e2e2e"/>
<path d="M1324.8 69.6504V73.5869" stroke="#2e2e2e"/>
<path d="M1308.56 69.6504V73.5869" stroke="#2e2e2e"/>
<path d="M1341.04 69.6504V73.5869" stroke="#2e2e2e"/>
<path d="M1297.74 64.7295V73.5867" stroke="#2e2e2e"/>
<path d="M1330.21 64.7295V73.5867" stroke="#2e2e2e"/>
<path d="M1313.97 52.9199V73.5868" stroke="#2e2e2e"/>
<path d="M1286.91 111.984V115.92" stroke="#2e2e2e"/>
<path d="M1319.39 111.984V115.92" stroke="#2e2e2e"/>
<path d="M1303.15 111.984V115.92" stroke="#2e2e2e"/>
<path d="M1335.62 111.984V115.92" stroke="#2e2e2e"/>
<path d="M1292.32 111.984V115.92" stroke="#2e2e2e"/>
<path d="M1324.8 111.984V115.92" stroke="#2e2e2e"/>
<path d="M1308.56 111.984V115.92" stroke="#2e2e2e"/>
<path d="M1341.04 111.984V115.92" stroke="#2e2e2e"/>
<path d="M1297.74 107.063V115.921" stroke="#2e2e2e"/>
<path d="M1330.21 107.063V115.921" stroke="#2e2e2e"/>
<path d="M1313.97 95.2539V115.921" stroke="#2e2e2e"/>
<path d="M1286.91 153.317V157.254" stroke="#2e2e2e"/>
<path d="M1319.39 153.317V157.254" stroke="#2e2e2e"/>
<path d="M1303.15 153.317V157.254" stroke="#2e2e2e"/>
<path d="M1335.62 153.317V157.254" stroke="#2e2e2e"/>
<path d="M1292.32 153.317V157.254" stroke="#2e2e2e"/>
<path d="M1324.8 153.317V157.254" stroke="#2e2e2e"/>
<path d="M1308.56 153.317V157.254" stroke="#2e2e2e"/>
<path d="M1341.04 153.317V157.254" stroke="#2e2e2e"/>
<path d="M1297.74 148.396V157.254" stroke="#2e2e2e"/>
<path d="M1330.21 148.396V157.254" stroke="#2e2e2e"/>
<path d="M1313.97 136.587V157.254" stroke="#2e2e2e"/>
<path d="M1286.91 194.651V198.588" stroke="#2e2e2e"/>
<path d="M1319.39 194.651V198.588" stroke="#2e2e2e"/>
<path d="M1303.15 194.651V198.588" stroke="#2e2e2e"/>
<path d="M1335.62 194.651V198.588" stroke="#2e2e2e"/>
<path d="M1292.32 194.651V198.588" stroke="#2e2e2e"/>
<path d="M1324.8 194.651V198.588" stroke="#2e2e2e"/>
<path d="M1308.56 194.651V198.588" stroke="#2e2e2e"/>
<path d="M1341.04 194.651V198.588" stroke="#2e2e2e"/>
<path d="M1297.74 189.73V198.588" stroke="#2e2e2e"/>
<path d="M1330.21 189.73V198.588" stroke="#2e2e2e"/>
<path d="M1313.97 177.921V198.588" stroke="#2e2e2e"/>
<path d="M1348.91 69.6504V73.5869" stroke="#2e2e2e"/>
<path d="M1381.39 69.6504V73.5869" stroke="#2e2e2e"/>
<path d="M1365.15 69.6504V73.5869" stroke="#2e2e2e"/>
<path d="M1397.63 69.6504V73.5869" stroke="#2e2e2e"/>
<path d="M1354.32 69.6504V73.5869" stroke="#2e2e2e"/>
<path d="M1386.8 69.6504V73.5869" stroke="#2e2e2e"/>
<path d="M1370.56 69.6504V73.5869" stroke="#2e2e2e"/>
<path d="M1403.04 69.6504V73.5869" stroke="#2e2e2e"/>
<path d="M1359.74 64.7295V73.5867" stroke="#2e2e2e"/>
<path d="M1392.21 64.7295V73.5867" stroke="#2e2e2e"/>
<path d="M1375.97 52.9199V73.5868" stroke="#2e2e2e"/>
<path d="M1348.91 111.984V115.921" stroke="#2e2e2e"/>
<path d="M1381.39 111.984V115.921" stroke="#2e2e2e"/>
<path d="M1365.15 111.984V115.921" stroke="#2e2e2e"/>
<path d="M1397.63 111.984V115.921" stroke="#2e2e2e"/>
<path d="M1354.32 111.984V115.921" stroke="#2e2e2e"/>
<path d="M1386.8 111.984V115.921" stroke="#2e2e2e"/>
<path d="M1370.56 111.984V115.921" stroke="#2e2e2e"/>
<path d="M1403.04 111.984V115.921" stroke="#2e2e2e"/>
<path d="M1359.74 107.063V115.921" stroke="#2e2e2e"/>
<path d="M1392.21 107.063V115.921" stroke="#2e2e2e"/>
<path d="M1375.97 95.2539V115.921" stroke="#2e2e2e"/>
<path d="M1348.91 153.317V157.254" stroke="#2e2e2e"/>
<path d="M1381.39 153.317V157.254" stroke="#2e2e2e"/>
<path d="M1365.15 153.317V157.254" stroke="#2e2e2e"/>
<path d="M1397.63 153.317V157.254" stroke="#2e2e2e"/>
<path d="M1354.32 153.317V157.254" stroke="#2e2e2e"/>
<path d="M1386.8 153.317V157.254" stroke="#2e2e2e"/>
<path d="M1370.56 153.317V157.254" stroke="#2e2e2e"/>
<path d="M1403.04 153.317V157.254" stroke="#2e2e2e"/>
<path d="M1359.74 148.396V157.254" stroke="#2e2e2e"/>
<path d="M1392.21 148.396V157.254" stroke="#2e2e2e"/>
<path d="M1375.97 136.587V157.254" stroke="#2e2e2e"/>
<path d="M1348.91 194.651V198.588" stroke="#2e2e2e"/>
<path d="M1381.39 194.651V198.588" stroke="#2e2e2e"/>
<path d="M1365.15 194.651V198.588" stroke="#2e2e2e"/>
<path d="M1397.63 194.651V198.588" stroke="#2e2e2e"/>
<path d="M1354.32 194.651V198.588" stroke="#2e2e2e"/>
<path d="M1386.8 194.651V198.588" stroke="#2e2e2e"/>
<path d="M1370.56 194.651V198.588" stroke="#2e2e2e"/>
<path d="M1403.04 194.651V198.588" stroke="#2e2e2e"/>
<path d="M1359.74 189.73V198.588" stroke="#2e2e2e"/>
<path d="M1392.21 189.73V198.588" stroke="#2e2e2e"/>
<path d="M1375.97 177.921V198.588" stroke="#2e2e2e"/>
<path d="M1410.91 69.6504V73.5869" stroke="#2e2e2e"/>
<path d="M1443.39 69.6504V73.5869" stroke="#2e2e2e"/>
<path d="M1427.15 69.6504V73.5869" stroke="#2e2e2e"/>
<path d="M1459.63 69.6504V73.5869" stroke="#2e2e2e"/>
<path d="M1416.32 69.6504V73.5869" stroke="#2e2e2e"/>
<path d="M1448.8 69.6504V73.5869" stroke="#2e2e2e"/>
<path d="M1432.56 69.6504V73.5869" stroke="#2e2e2e"/>
<path d="M1465.04 69.6504V73.5869" stroke="#2e2e2e"/>
<path d="M1421.74 64.7295V73.5867" stroke="#2e2e2e"/>
<path d="M1454.21 64.7295V73.5867" stroke="#2e2e2e"/>
<path d="M1437.97 52.9199V73.5868" stroke="#2e2e2e"/>
<path d="M1410.91 111.984V115.921" stroke="#2e2e2e"/>
<path d="M1443.39 111.984V115.921" stroke="#2e2e2e"/>
<path d="M1427.15 111.984V115.921" stroke="#2e2e2e"/>
<path d="M1459.63 111.984V115.921" stroke="#2e2e2e"/>
<path d="M1416.32 111.984V115.921" stroke="#2e2e2e"/>
<path d="M1448.8 111.984V115.921" stroke="#2e2e2e"/>
<path d="M1432.56 111.984V115.921" stroke="#2e2e2e"/>
<path d="M1465.04 111.984V115.921" stroke="#2e2e2e"/>
<path d="M1421.74 107.063V115.921" stroke="#2e2e2e"/>
<path d="M1454.21 107.063V115.921" stroke="#2e2e2e"/>
<path d="M1437.97 95.2539V115.921" stroke="#2e2e2e"/>
<path d="M1410.91 153.317V157.254" stroke="#2e2e2e"/>
<path d="M1443.39 153.317V157.254" stroke="#2e2e2e"/>
<path d="M1427.15 153.317V157.254" stroke="#2e2e2e"/>
<path d="M1459.63 153.317V157.254" stroke="#2e2e2e"/>
<path d="M1416.33 153.317V157.254" stroke="#2e2e2e"/>
<path d="M1448.8 153.317V157.254" stroke="#2e2e2e"/>
<path d="M1432.56 153.317V157.254" stroke="#2e2e2e"/>
<path d="M1465.04 153.317V157.254" stroke="#2e2e2e"/>
<path d="M1421.74 148.396V157.254" stroke="#2e2e2e"/>
<path d="M1454.21 148.396V157.254" stroke="#2e2e2e"/>
<path d="M1437.98 136.587V157.254" stroke="#2e2e2e"/>
<path d="M1410.91 194.651V198.588" stroke="#2e2e2e"/>
<path d="M1443.39 194.651V198.588" stroke="#2e2e2e"/>
<path d="M1427.15 194.651V198.588" stroke="#2e2e2e"/>
<path d="M1459.63 194.651V198.588" stroke="#2e2e2e"/>
<path d="M1416.33 194.651V198.588" stroke="#2e2e2e"/>
<path d="M1448.8 194.651V198.588" stroke="#2e2e2e"/>
<path d="M1432.56 194.651V198.588" stroke="#2e2e2e"/>
<path d="M1465.04 194.651V198.588" stroke="#2e2e2e"/>
<path d="M1421.74 189.73V198.588" stroke="#2e2e2e"/>
<path d="M1454.21 189.73V198.588" stroke="#2e2e2e"/>
<path d="M1437.98 177.921V198.588" stroke="#2e2e2e"/>
<path d="M1472.91 69.6504V73.5869" stroke="#2e2e2e"/>
<path d="M1505.39 69.6504V73.5869" stroke="#2e2e2e"/>
<path d="M1489.15 69.6504V73.5869" stroke="#2e2e2e"/>
<path d="M1521.63 69.6504V73.5869" stroke="#2e2e2e"/>
<path d="M1478.33 69.6504V73.5869" stroke="#2e2e2e"/>
<path d="M1510.8 69.6504V73.5869" stroke="#2e2e2e"/>
<path d="M1494.56 69.6504V73.5869" stroke="#2e2e2e"/>
<path d="M1527.04 69.6504V73.5869" stroke="#2e2e2e"/>
<path d="M1483.74 64.7295V73.5867" stroke="#2e2e2e"/>
<path d="M1516.21 64.7295V73.5867" stroke="#2e2e2e"/>
<path d="M1499.98 52.9199V73.5868" stroke="#2e2e2e"/>
<path d="M1472.91 111.984V115.921" stroke="#2e2e2e"/>
<path d="M1505.39 111.984V115.921" stroke="#2e2e2e"/>
<path d="M1489.15 111.984V115.921" stroke="#2e2e2e"/>
<path d="M1521.63 111.984V115.921" stroke="#2e2e2e"/>
<path d="M1478.33 111.984V115.921" stroke="#2e2e2e"/>
<path d="M1510.8 111.984V115.921" stroke="#2e2e2e"/>
<path d="M1494.56 111.984V115.921" stroke="#2e2e2e"/>
<path d="M1527.04 111.984V115.921" stroke="#2e2e2e"/>
<path d="M1483.74 107.063V115.921" stroke="#2e2e2e"/>
<path d="M1516.21 107.063V115.921" stroke="#2e2e2e"/>
<path d="M1499.98 95.2539V115.921" stroke="#2e2e2e"/>
<path d="M1472.91 153.317V157.254" stroke="#2e2e2e"/>
<path d="M1505.39 153.317V157.254" stroke="#2e2e2e"/>
<path d="M1489.15 153.317V157.254" stroke="#2e2e2e"/>
<path d="M1521.63 153.317V157.254" stroke="#2e2e2e"/>
<path d="M1478.32 153.317V157.254" stroke="#2e2e2e"/>
<path d="M1510.8 153.317V157.254" stroke="#2e2e2e"/>
<path d="M1494.56 153.317V157.254" stroke="#2e2e2e"/>
<path d="M1527.04 153.317V157.254" stroke="#2e2e2e"/>
<path d="M1483.74 148.396V157.254" stroke="#2e2e2e"/>
<path d="M1516.21 148.396V157.254" stroke="#2e2e2e"/>
<path d="M1499.97 136.587V157.254" stroke="#2e2e2e"/>
<path d="M1472.91 194.651V198.588" stroke="#2e2e2e"/>
<path d="M1505.39 194.651V198.588" stroke="#2e2e2e"/>
<path d="M1489.15 194.651V198.588" stroke="#2e2e2e"/>
<path d="M1521.63 194.651V198.588" stroke="#2e2e2e"/>
<path d="M1478.32 194.651V198.588" stroke="#2e2e2e"/>
<path d="M1510.8 194.651V198.588" stroke="#2e2e2e"/>
<path d="M1494.56 194.651V198.588" stroke="#2e2e2e"/>
<path d="M1527.04 194.651V198.588" stroke="#2e2e2e"/>
<path d="M1483.74 189.73V198.588" stroke="#2e2e2e"/>
<path d="M1516.21 189.73V198.588" stroke="#2e2e2e"/>
<path d="M1499.97 177.921V198.588" stroke="#2e2e2e"/>
<path d="M166.956 23V198" stroke="#2e2e2e"/>
<path d="M228.958 23V198" stroke="#2e2e2e"/>
<path d="M290.956 23V198" stroke="#2e2e2e"/>
<path d="M352.956 23V198" stroke="#2e2e2e"/>
<path d="M414.956 23V198" stroke="#2e2e2e"/>
<path d="M476.96 23V198" stroke="#2e2e2e"/>
<path d="M538.961 23V198" stroke="#2e2e2e"/>
<path d="M600.962 23V198" stroke="#2e2e2e"/>
<path d="M662.956 23V198" stroke="#2e2e2e"/>
<path d="M724.964 23V198" stroke="#2e2e2e"/>
<path d="M786.964 23V198" stroke="#2e2e2e"/>
<path d="M848.956 23V198" stroke="#2e2e2e"/>
<path d="M910.965 23V198" stroke="#2e2e2e"/>
<path d="M972.966 23V198" stroke="#2e2e2e"/>
<path d="M1034.97 23V198" stroke="#2e2e2e"/>
<path d="M1096.96 23V198" stroke="#2e2e2e"/>
<path d="M1158.96 23V198" stroke="#2e2e2e"/>
<path d="M1220.97 23V198" stroke="#2e2e2e"/>
<path d="M1282.97 23V198" stroke="#2e2e2e"/>
<path d="M1344.97 23V198" stroke="#2e2e2e"/>
<path d="M1406.96 23V198" stroke="#2e2e2e"/>
<path d="M1468.96 23V198" stroke="#2e2e2e"/>
<path d="M1530.98 23V198" stroke="#2e2e2e"/>
<path d="M1531.46 32.5H42.4561" stroke="#2e2e2e"/>
<path d="M1531.46 73.5H42.4561" stroke="#2e2e2e"/>
<path d="M1531.46 115.5H42.4561" stroke="#2e2e2e"/>
<path d="M1531.46 198.104H42.4561" stroke="#2e2e2e"/>
<path d="M1531.46 157.168H42.4561" stroke="#2e2e2e"/>
<path d="M48.0802 11.0001H45.7922V3.52812L42.7842 11.0001H41.7922L38.7842 3.52812V11.0001H36.5122V0.328125H39.6962L42.2882 6.77612L44.8802 0.328125H48.0802V11.0001Z" fill="#000000"/>
<path d="M105.976 11.0001H103.704V3.25612L101.928 5.06413L100.632 3.70412L103.992 0.328125H105.976V11.0001Z" fill="#000000"/>
<path d="M170.24 11H162.208V9.22397C164.491 7.52797 166 6.32264 166.736 5.60797C167.483 4.88264 167.856 4.2053 167.856 3.57597C167.856 3.13864 167.685 2.7973 167.344 2.55197C167.003 2.30664 166.597 2.18397 166.128 2.18397C165.008 2.18397 164.053 2.59464 163.264 3.41597L161.968 1.91197C162.469 1.33597 163.083 0.903969 163.808 0.615969C164.544 0.317299 165.301 0.167969 166.08 0.167969C167.253 0.167969 168.224 0.477299 168.992 1.09597C169.771 1.71464 170.16 2.5413 170.16 3.57597C170.16 4.45064 169.813 5.3093 169.12 6.15197C168.437 6.98397 167.36 7.93327 165.888 8.99997H170.24V11Z" fill="#000000"/>
<path d="M227.984 11.192C227.045 11.192 226.213 11.0373 225.488 10.728C224.763 10.408 224.192 9.99197 223.776 9.47997L224.96 7.95997C225.323 8.33327 225.771 8.63197 226.304 8.85597C226.837 9.06927 227.371 9.17597 227.904 9.17597C228.544 9.17597 229.04 9.05327 229.392 8.80797C229.744 8.55197 229.92 8.22127 229.92 7.81597C229.92 7.38927 229.749 7.07997 229.408 6.88797C229.067 6.6853 228.523 6.58397 227.776 6.58397C227.104 6.58397 226.661 6.59464 226.448 6.61597V4.56797C226.576 4.57864 227.019 4.58397 227.776 4.58397C229.088 4.58397 229.744 4.2053 229.744 3.44797C229.744 3.04264 229.557 2.7333 229.184 2.51997C228.821 2.29597 228.347 2.18397 227.76 2.18397C226.725 2.18397 225.824 2.55197 225.056 3.28797L223.92 1.86397C224.923 0.733299 226.283 0.167969 228 0.167969C229.248 0.167969 230.229 0.429299 230.944 0.951969C231.669 1.47464 232.032 2.17864 232.032 3.06397C232.032 3.70397 231.803 4.24264 231.344 4.67997C230.885 5.10664 230.336 5.37864 229.696 5.49597C230.325 5.55997 230.896 5.8213 231.408 6.27997C231.931 6.72797 232.192 7.31997 232.192 8.05597C232.192 8.98397 231.808 9.74127 231.04 10.328C230.272 10.904 229.253 11.192 227.984 11.192Z" fill="#000000"/>
<path d="M293.232 11.0001H290.96V8.79212H285.856V7.00012L290.096 0.328125H293.232V6.79212H294.608V8.79212H293.232V11.0001ZM290.96 6.79212V2.34412L288.08 6.79212H290.96Z" fill="#000000"/>
<path d="M352.352 11.1921C350.592 11.1921 349.221 10.6588 348.24 9.59212L349.504 8.00813C350.251 8.78683 351.195 9.17612 352.336 9.17612C352.944 9.17612 353.424 9.02682 353.776 8.72812C354.139 8.41882 354.32 8.04012 354.32 7.59212C354.32 7.11212 354.149 6.72812 353.808 6.44012C353.467 6.15212 352.997 6.00813 352.4 6.00813C351.515 6.00813 350.768 6.29612 350.16 6.87212L348.576 6.45613V0.328125H355.904V2.32812H350.848V4.93612C351.445 4.33879 352.229 4.04012 353.2 4.04012C354.149 4.04012 354.955 4.3548 355.616 4.98413C356.288 5.61346 356.624 6.4508 356.624 7.49613C356.624 8.62683 356.235 9.52812 355.456 10.2001C354.677 10.8614 353.643 11.1921 352.352 11.1921Z" fill="#000000"/>
<path d="M414.608 11.192C413.072 11.192 411.92 10.68 411.152 9.65597C410.384 8.63197 410 7.30927 410 5.68797C410 4.03464 410.443 2.7013 411.328 1.68797C412.213 0.674639 413.429 0.167969 414.976 0.167969C416.213 0.167969 417.264 0.535969 418.128 1.27197L417.104 3.01597C416.517 2.4613 415.808 2.18397 414.976 2.18397C414.197 2.18397 413.557 2.4773 413.056 3.06397C412.555 3.63997 412.304 4.35464 412.304 5.20797C412.304 5.30397 412.309 5.37864 412.32 5.43197C412.587 5.04797 412.971 4.72264 413.472 4.45597C413.973 4.1893 414.501 4.05597 415.056 4.05597C416.069 4.05597 416.928 4.3653 417.632 4.98397C418.336 5.59197 418.688 6.43997 418.688 7.52797C418.688 8.58397 418.309 9.45867 417.552 10.152C416.795 10.8453 415.813 11.192 414.608 11.192ZM414.48 9.17597C415.056 9.17597 415.515 9.01597 415.856 8.69597C416.208 8.37597 416.384 8.01327 416.384 7.60797C416.384 7.08527 416.192 6.69064 415.808 6.42397C415.424 6.14664 414.955 6.00797 414.4 6.00797C413.547 6.00797 412.853 6.34397 412.32 7.01597C412.373 7.61327 412.576 8.12527 412.928 8.55197C413.28 8.96797 413.797 9.17597 414.48 9.17597Z" fill="#000000"/>
<path d="M476.888 11.0001H474.392L478.216 2.32812H472.84V0.328125H480.856V1.91213L476.888 11.0001Z" fill="#000000"/>
<path d="M538.304 11.192C537.099 11.192 536.08 10.936 535.248 10.424C534.427 9.91197 534.016 9.18127 534.016 8.23197C534.016 7.61327 534.229 7.06397 534.656 6.58397C535.083 6.0933 535.632 5.73064 536.304 5.49597C534.896 5.0053 534.192 4.16797 534.192 2.98397C534.192 2.05597 534.597 1.3573 535.408 0.887969C536.229 0.407969 537.195 0.167969 538.304 0.167969C539.008 0.167969 539.659 0.258639 540.256 0.439969C540.853 0.621299 541.36 0.935969 541.776 1.38397C542.203 1.8213 542.416 2.35464 542.416 2.98397C542.416 4.1573 541.707 4.99464 540.288 5.49597C540.96 5.73064 541.509 6.0933 541.936 6.58397C542.373 7.06397 542.592 7.61327 542.592 8.23197C542.592 9.17067 542.176 9.90127 541.344 10.424C540.512 10.936 539.499 11.192 538.304 11.192ZM538.304 4.59997C538.741 4.53597 539.147 4.3973 539.52 4.18397C539.904 3.97064 540.096 3.68797 540.096 3.33597C540.096 2.96264 539.931 2.6693 539.6 2.45597C539.269 2.23197 538.837 2.11997 538.304 2.11997C537.771 2.11997 537.333 2.23197 536.992 2.45597C536.661 2.6693 536.496 2.96264 536.496 3.33597C536.496 3.68797 536.688 3.97064 537.072 4.18397C537.456 4.3973 537.867 4.53597 538.304 4.59997ZM538.304 9.23997C538.859 9.23997 539.328 9.12267 539.712 8.88797C540.096 8.64267 540.288 8.32797 540.288 7.94397C540.288 7.54927 540.069 7.22927 539.632 6.98397C539.205 6.73864 538.763 6.58397 538.304 6.51997C537.845 6.58397 537.397 6.73864 536.96 6.98397C536.533 7.22927 536.32 7.54927 536.32 7.94397C536.32 8.32797 536.507 8.64267 536.88 8.88797C537.264 9.12267 537.739 9.23997 538.304 9.23997Z" fill="#000000"/>
<path d="M599.664 11.1763C598.395 11.1763 597.349 10.8083 596.528 10.0723L597.536 8.32834C598.123 8.88304 598.832 9.16034 599.664 9.16034C600.496 9.16034 601.147 8.86704 601.616 8.28034C602.096 7.68304 602.336 6.97367 602.336 6.15234V5.91234C602.059 6.29634 601.669 6.62167 601.168 6.88834C600.667 7.15504 600.139 7.28834 599.584 7.28834C598.571 7.28834 597.707 6.98434 596.992 6.37634C596.288 5.75767 595.936 4.90434 595.936 3.81634C595.936 2.76034 596.315 1.88567 597.072 1.19234C597.84 0.499014 598.827 0.152344 600.032 0.152344C601.067 0.152344 601.936 0.408344 602.64 0.920344C603.355 1.43234 603.861 2.09367 604.16 2.90434C604.469 3.70434 604.624 4.62701 604.624 5.67234C604.624 7.31504 604.181 8.64304 603.296 9.65634C602.421 10.6696 601.211 11.1763 599.664 11.1763ZM600.224 5.33634C601.077 5.33634 601.776 5.00567 602.32 4.34434C602.267 3.74701 602.064 3.23501 601.712 2.80834C601.36 2.38167 600.837 2.16834 600.144 2.16834C599.568 2.16834 599.109 2.32834 598.768 2.64834C598.427 2.96834 598.256 3.33101 598.256 3.73634C598.256 4.25901 598.448 4.65901 598.832 4.93634C599.216 5.20301 599.68 5.33634 600.224 5.33634Z" fill="#000000"/>
<path d="M659.976 11H657.704V3.25597L655.928 5.06397L654.632 3.70397L657.992 0.327969H659.976V11ZM668.474 10.376C667.791 10.92 666.965 11.192 665.994 11.192C665.023 11.192 664.191 10.92 663.498 10.376C662.815 9.82127 662.325 9.13867 662.026 8.32797C661.727 7.51727 661.578 6.63197 661.578 5.67197C661.578 4.71197 661.727 3.82664 662.026 3.01597C662.325 2.2053 662.815 1.52797 663.498 0.983969C664.191 0.439969 665.023 0.167969 665.994 0.167969C666.965 0.167969 667.791 0.439969 668.474 0.983969C669.157 1.52797 669.647 2.2053 669.946 3.01597C670.255 3.82664 670.41 4.71197 670.41 5.67197C670.41 6.63197 670.255 7.51727 669.946 8.32797C669.647 9.13867 669.157 9.82127 668.474 10.376ZM664.394 8.21597C664.735 8.85597 665.269 9.17597 665.994 9.17597C666.719 9.17597 667.247 8.85597 667.578 8.21597C667.919 7.57597 668.09 6.72797 668.09 5.67197C668.09 4.61597 667.919 3.7733 667.578 3.14397C667.247 2.50397 666.719 2.18397 665.994 2.18397C665.269 2.18397 664.735 2.50397 664.394 3.14397C664.053 3.7733 663.882 4.61597 663.882 5.67197C663.882 6.72797 664.053 7.57597 664.394 8.21597Z" fill="#000000"/>
<path d="M722.976 11.0001H720.704V3.25612L718.928 5.06413L717.632 3.70412L720.992 0.328125H722.976V11.0001ZM729.554 11.0001H727.282V3.25612L725.506 5.06413L724.21 3.70412L727.57 0.328125H729.554V11.0001Z" fill="#000000"/>
<path d="M791.064 11.0001H788.872L783.784 4.04012V11.0001H781.512V0.328125H783.848L788.792 7.03212V0.328125H791.064V11.0001Z" fill="#000000"/>
<path d="M850.976 11.0001H848.704V3.25612L846.928 5.06413L845.632 3.70412L848.992 0.328125H850.976V11.0001Z" fill="#000000"/>
<path d="M914.24 11H906.208V9.22397C908.491 7.52797 910 6.32264 910.736 5.60797C911.483 4.88264 911.856 4.2053 911.856 3.57597C911.856 3.13864 911.685 2.7973 911.344 2.55197C911.003 2.30664 910.597 2.18397 910.128 2.18397C909.008 2.18397 908.053 2.59464 907.264 3.41597L905.968 1.91197C906.469 1.33597 907.083 0.903969 907.808 0.615969C908.544 0.317299 909.301 0.167969 910.08 0.167969C911.253 0.167969 912.224 0.477299 912.992 1.09597C913.771 1.71464 914.16 2.5413 914.16 3.57597C914.16 4.45064 913.813 5.3093 913.12 6.15197C912.437 6.98397 911.36 7.93327 909.888 8.99997H914.24V11Z" fill="#000000"/>
<path d="M971.984 11.192C971.045 11.192 970.213 11.0373 969.488 10.728C968.763 10.408 968.192 9.99197 967.776 9.47997L968.96 7.95997C969.323 8.33327 969.771 8.63197 970.304 8.85597C970.837 9.06927 971.371 9.17597 971.904 9.17597C972.544 9.17597 973.04 9.05327 973.392 8.80797C973.744 8.55197 973.92 8.22127 973.92 7.81597C973.92 7.38927 973.749 7.07997 973.408 6.88797C973.067 6.6853 972.523 6.58397 971.776 6.58397C971.104 6.58397 970.661 6.59464 970.448 6.61597V4.56797C970.576 4.57864 971.019 4.58397 971.776 4.58397C973.088 4.58397 973.744 4.2053 973.744 3.44797C973.744 3.04264 973.557 2.7333 973.184 2.51997C972.821 2.29597 972.347 2.18397 971.76 2.18397C970.725 2.18397 969.824 2.55197 969.056 3.28797L967.92 1.86397C968.923 0.733299 970.283 0.167969 972 0.167969C973.248 0.167969 974.229 0.429299 974.944 0.951969C975.669 1.47464 976.032 2.17864 976.032 3.06397C976.032 3.70397 975.803 4.24264 975.344 4.67997C974.885 5.10664 974.336 5.37864 973.696 5.49597C974.325 5.55997 974.896 5.8213 975.408 6.27997C975.931 6.72797 976.192 7.31997 976.192 8.05597C976.192 8.98397 975.808 9.74127 975.04 10.328C974.272 10.904 973.253 11.192 971.984 11.192Z" fill="#000000"/>
<path d="M1037.24 11.0001H1034.96V8.79212H1029.86V7.00012L1034.1 0.328125H1037.24V6.79212H1038.61V8.79212H1037.24V11.0001ZM1034.96 6.79212V2.34412L1032.08 6.79212H1034.96Z" fill="#000000"/>
<path d="M1096.36 11.1921C1094.6 11.1921 1093.23 10.6588 1092.24 9.59212L1093.51 8.00813C1094.25 8.78683 1095.2 9.17612 1096.34 9.17612C1096.95 9.17612 1097.43 9.02682 1097.78 8.72812C1098.14 8.41882 1098.32 8.04012 1098.32 7.59212C1098.32 7.11212 1098.15 6.72812 1097.81 6.44012C1097.47 6.15212 1097 6.00813 1096.4 6.00813C1095.52 6.00813 1094.77 6.29612 1094.16 6.87212L1092.58 6.45613V0.328125H1099.91V2.32812H1094.85V4.93612C1095.45 4.33879 1096.23 4.04012 1097.2 4.04012C1098.15 4.04012 1098.96 4.3548 1099.62 4.98413C1100.29 5.61346 1100.63 6.4508 1100.63 7.49613C1100.63 8.62683 1100.24 9.52812 1099.46 10.2001C1098.68 10.8614 1097.65 11.1921 1096.36 11.1921Z" fill="#000000"/>
<path d="M1158.61 11.192C1157.08 11.192 1155.92 10.68 1155.16 9.65597C1154.39 8.63197 1154 7.30927 1154 5.68797C1154 4.03464 1154.45 2.7013 1155.33 1.68797C1156.22 0.674639 1157.43 0.167969 1158.98 0.167969C1160.22 0.167969 1161.27 0.535969 1162.13 1.27197L1161.11 3.01597C1160.52 2.4613 1159.81 2.18397 1158.98 2.18397C1158.2 2.18397 1157.56 2.4773 1157.06 3.06397C1156.56 3.63997 1156.31 4.35464 1156.31 5.20797C1156.31 5.30397 1156.31 5.37864 1156.32 5.43197C1156.59 5.04797 1156.97 4.72264 1157.48 4.45597C1157.98 4.1893 1158.51 4.05597 1159.06 4.05597C1160.07 4.05597 1160.93 4.3653 1161.64 4.98397C1162.34 5.59197 1162.69 6.43997 1162.69 7.52797C1162.69 8.58397 1162.31 9.45867 1161.56 10.152C1160.8 10.8453 1159.82 11.192 1158.61 11.192ZM1158.48 9.17597C1159.06 9.17597 1159.52 9.01597 1159.86 8.69597C1160.21 8.37597 1160.39 8.01327 1160.39 7.60797C1160.39 7.08527 1160.2 6.69064 1159.81 6.42397C1159.43 6.14664 1158.96 6.00797 1158.4 6.00797C1157.55 6.00797 1156.86 6.34397 1156.32 7.01597C1156.38 7.61327 1156.58 8.12527 1156.93 8.55197C1157.28 8.96797 1157.8 9.17597 1158.48 9.17597Z" fill="#000000"/>
<path d="M1220.89 11.0001H1218.4L1222.22 2.32812H1216.84V0.328125H1224.86V1.91213L1220.89 11.0001Z" fill="#000000"/>
<path d="M1282.31 11.192C1281.1 11.192 1280.08 10.936 1279.25 10.424C1278.43 9.91197 1278.02 9.18127 1278.02 8.23197C1278.02 7.61327 1278.23 7.06397 1278.66 6.58397C1279.09 6.0933 1279.64 5.73064 1280.31 5.49597C1278.9 5.0053 1278.2 4.16797 1278.2 2.98397C1278.2 2.05597 1278.6 1.3573 1279.41 0.887969C1280.23 0.407969 1281.2 0.167969 1282.31 0.167969C1283.01 0.167969 1283.66 0.258639 1284.26 0.439969C1284.86 0.621299 1285.36 0.935969 1285.78 1.38397C1286.21 1.8213 1286.42 2.35464 1286.42 2.98397C1286.42 4.1573 1285.71 4.99464 1284.29 5.49597C1284.96 5.73064 1285.51 6.0933 1285.94 6.58397C1286.38 7.06397 1286.6 7.61327 1286.6 8.23197C1286.6 9.17067 1286.18 9.90127 1285.35 10.424C1284.52 10.936 1283.5 11.192 1282.31 11.192ZM1282.31 4.59997C1282.75 4.53597 1283.15 4.3973 1283.52 4.18397C1283.91 3.97064 1284.1 3.68797 1284.1 3.33597C1284.1 2.96264 1283.93 2.6693 1283.6 2.45597C1283.27 2.23197 1282.84 2.11997 1282.31 2.11997C1281.77 2.11997 1281.34 2.23197 1281 2.45597C1280.67 2.6693 1280.5 2.96264 1280.5 3.33597C1280.5 3.68797 1280.69 3.97064 1281.08 4.18397C1281.46 4.3973 1281.87 4.53597 1282.31 4.59997ZM1282.31 9.23997C1282.86 9.23997 1283.33 9.12267 1283.72 8.88797C1284.1 8.64267 1284.29 8.32797 1284.29 7.94397C1284.29 7.54927 1284.07 7.22927 1283.64 6.98397C1283.21 6.73864 1282.77 6.58397 1282.31 6.51997C1281.85 6.58397 1281.4 6.73864 1280.96 6.98397C1280.54 7.22927 1280.32 7.54927 1280.32 7.94397C1280.32 8.32797 1280.51 8.64267 1280.88 8.88797C1281.27 9.12267 1281.74 9.23997 1282.31 9.23997Z" fill="#000000"/>
<path d="M1343.67 11.1763C1342.4 11.1763 1341.35 10.8083 1340.53 10.0723L1341.54 8.32834C1342.13 8.88304 1342.84 9.16034 1343.67 9.16034C1344.5 9.16034 1345.15 8.86704 1345.62 8.28034C1346.1 7.68304 1346.34 6.97367 1346.34 6.15234V5.91234C1346.06 6.29634 1345.67 6.62167 1345.17 6.88834C1344.67 7.15504 1344.14 7.28834 1343.59 7.28834C1342.57 7.28834 1341.71 6.98434 1341 6.37634C1340.29 5.75767 1339.94 4.90434 1339.94 3.81634C1339.94 2.76034 1340.32 1.88567 1341.08 1.19234C1341.84 0.499014 1342.83 0.152344 1344.04 0.152344C1345.07 0.152344 1345.94 0.408344 1346.64 0.920344C1347.36 1.43234 1347.87 2.09367 1348.16 2.90434C1348.47 3.70434 1348.63 4.62701 1348.63 5.67234C1348.63 7.31504 1348.19 8.64304 1347.3 9.65634C1346.43 10.6696 1345.21 11.1763 1343.67 11.1763ZM1344.23 5.33634C1345.08 5.33634 1345.78 5.00567 1346.32 4.34434C1346.27 3.74701 1346.07 3.23501 1345.72 2.80834C1345.36 2.38167 1344.84 2.16834 1344.15 2.16834C1343.57 2.16834 1343.11 2.32834 1342.77 2.64834C1342.43 2.96834 1342.26 3.33101 1342.26 3.73634C1342.26 4.25901 1342.45 4.65901 1342.84 4.93634C1343.22 5.20301 1343.68 5.33634 1344.23 5.33634Z" fill="#000000"/>
<path d="M1403.98 11H1401.71V3.25597L1399.93 5.06397L1398.64 3.70397L1402 0.327969H1403.98V11ZM1412.48 10.376C1411.8 10.92 1410.97 11.192 1410 11.192C1409.03 11.192 1408.2 10.92 1407.5 10.376C1406.82 9.82127 1406.33 9.13867 1406.03 8.32797C1405.73 7.51727 1405.58 6.63197 1405.58 5.67197C1405.58 4.71197 1405.73 3.82664 1406.03 3.01597C1406.33 2.2053 1406.82 1.52797 1407.5 0.983969C1408.2 0.439969 1409.03 0.167969 1410 0.167969C1410.97 0.167969 1411.8 0.439969 1412.48 0.983969C1413.16 1.52797 1413.65 2.2053 1413.95 3.01597C1414.26 3.82664 1414.41 4.71197 1414.41 5.67197C1414.41 6.63197 1414.26 7.51727 1413.95 8.32797C1413.65 9.13867 1413.16 9.82127 1412.48 10.376ZM1408.4 8.21597C1408.74 8.85597 1409.27 9.17597 1410 9.17597C1410.72 9.17597 1411.25 8.85597 1411.58 8.21597C1411.92 7.57597 1412.09 6.72797 1412.09 5.67197C1412.09 4.61597 1411.92 3.7733 1411.58 3.14397C1411.25 2.50397 1410.72 2.18397 1410 2.18397C1409.27 2.18397 1408.74 2.50397 1408.4 3.14397C1408.06 3.7733 1407.89 4.61597 1407.89 5.67197C1407.89 6.72797 1408.06 7.57597 1408.4 8.21597Z" fill="#000000"/>
<path d="M1466.98 11.0001H1464.71V3.25612L1462.93 5.06413L1461.64 3.70412L1465 0.328125H1466.98V11.0001ZM1473.56 11.0001H1471.29V3.25612L1469.51 5.06413L1468.21 3.70412L1471.57 0.328125H1473.56V11.0001Z" fill="#000000"/>
<path d="M1536.08 11.0001H1533.8V3.52812L1530.79 11.0001H1529.8L1526.79 3.52812V11.0001H1524.52V0.328125H1527.7L1530.29 6.77612L1532.88 0.328125H1536.08V11.0001Z" fill="#000000"/>
<path d="M5.568 57.1923C3.95733 57.1923 2.624 56.675 1.568 55.6403C0.52267 54.595 0 53.2723 0 51.6723C0 50.0723 0.52267 48.755 1.568 47.7203C2.624 46.675 3.95733 46.1523 5.568 46.1523C7.18933 46.1523 8.52267 46.6696 9.568 47.7043C10.624 48.739 11.152 50.0616 11.152 51.6723C11.152 53.283 10.624 54.6056 9.568 55.6403C8.52267 56.675 7.18933 57.1923 5.568 57.1923ZM3.216 54.1843C3.81333 54.8456 4.59733 55.1763 5.568 55.1763C6.53867 55.1763 7.32267 54.8456 7.92 54.1843C8.51733 53.523 8.816 52.6856 8.816 51.6723C8.816 50.659 8.51733 49.8216 7.92 49.1603C7.32267 48.499 6.53867 48.1683 5.568 48.1683C4.59733 48.1683 3.81333 48.499 3.216 49.1603C2.62933 49.8216 2.336 50.659 2.336 51.6723C2.336 52.6856 2.62933 53.523 3.216 54.1843ZM15.0184 57.0003H12.7464V46.3283H20.2984V48.3283H15.0184V50.5843H20.1864V52.5843H15.0184V57.0003ZM24.159 57.0003H21.887V46.3283H29.439V48.3283H24.159V50.5843H29.327V52.5843H24.159V57.0003Z" fill="#000000"/>
<path d="M14.304 99.192C12.4053 99.192 10.9013 98.627 9.79199 97.496L11.024 95.768C11.9413 96.728 13.072 97.208 14.416 97.208C15.0027 97.208 15.456 97.096 15.776 96.872C16.1067 96.6373 16.272 96.3547 16.272 96.024C16.272 95.736 16.1173 95.496 15.808 95.304C15.5093 95.112 15.1307 94.9733 14.672 94.888C14.224 94.8027 13.7333 94.68 13.2 94.52C12.6667 94.36 12.1707 94.1787 11.712 93.976C11.264 93.7733 10.8853 93.4533 10.576 93.016C10.2773 92.5787 10.128 92.0453 10.128 91.416C10.128 90.4987 10.496 89.7307 11.232 89.112C11.968 88.4827 12.9493 88.168 14.176 88.168C15.872 88.168 17.2587 88.664 18.336 89.656L17.072 91.32C16.2293 90.5413 15.1947 90.152 13.968 90.152C13.488 90.152 13.1147 90.248 12.848 90.44C12.5813 90.632 12.448 90.8933 12.448 91.224C12.448 91.48 12.5973 91.6987 12.896 91.88C13.2053 92.0507 13.584 92.1787 14.032 92.264C14.4907 92.3493 14.9813 92.4773 15.504 92.648C16.0373 92.808 16.528 92.9947 16.976 93.208C17.4347 93.4107 17.8133 93.736 18.112 94.184C18.4213 94.6213 18.576 95.1493 18.576 95.768C18.576 96.792 18.208 97.619 17.472 98.248C16.7467 98.877 15.6907 99.192 14.304 99.192ZM25.8978 99H20.1057V88.328H25.7218C26.6924 88.328 27.4444 88.5947 27.9778 89.128C28.5218 89.6507 28.7938 90.2907 28.7938 91.048C28.7938 91.6987 28.6178 92.2427 28.2658 92.68C27.9138 93.1173 27.4764 93.3893 26.9538 93.496C27.5298 93.5813 28.0151 93.8747 28.4098 94.376C28.8044 94.8773 29.0018 95.4587 29.0018 96.12C29.0018 96.952 28.7298 97.64 28.1858 98.184C27.6418 98.728 26.8791 99 25.8978 99ZM25.2258 92.6C25.6098 92.6 25.9138 92.4933 26.1378 92.28C26.3618 92.0667 26.4738 91.7893 26.4738 91.448C26.4738 91.1067 26.3564 90.8293 26.1218 90.616C25.8978 90.392 25.5991 90.28 25.2258 90.28H22.3778V92.6H25.2258ZM25.3058 97.032C25.7324 97.032 26.0684 96.9253 26.3138 96.712C26.5591 96.488 26.6818 96.184 26.6818 95.8C26.6818 95.448 26.5591 95.1547 26.3138 94.92C26.0684 94.6747 25.7324 94.552 25.3058 94.552H22.3778V97.032H25.3058Z" fill="#000000"/>
<path d="M13.7202 140H9.51221V129.328H13.7202C15.3949 129.328 16.7549 129.819 17.8002 130.8C18.8562 131.781 19.3842 133.072 19.3842 134.672C19.3842 136.272 18.8615 137.563 17.8162 138.544C16.7709 139.515 15.4055 140 13.7202 140ZM13.7202 138C14.7442 138 15.5549 137.68 16.1522 137.04C16.7602 136.4 17.0642 135.611 17.0642 134.672C17.0642 133.691 16.7709 132.891 16.1842 132.272C15.5975 131.643 14.7762 131.328 13.7202 131.328H11.7842V138H13.7202ZM29.6366 140H27.0286L24.9326 136.208H23.2686V140H20.9966V129.328H25.9886C27.0872 129.328 27.9566 129.648 28.5966 130.288C29.2472 130.928 29.5726 131.755 29.5726 132.768C29.5726 133.643 29.3432 134.352 28.8846 134.896C28.4366 135.44 27.8872 135.787 27.2366 135.936L29.6366 140ZM25.6526 134.208C26.1219 134.208 26.5059 134.08 26.8046 133.824C27.1032 133.557 27.2526 133.205 27.2526 132.768C27.2526 132.331 27.1032 131.984 26.8046 131.728C26.5059 131.461 26.1219 131.328 25.6526 131.328H23.2686V134.208H25.6526Z" fill="#000000"/>
<path d="M12.568 181.192C10.9573 181.192 9.624 180.675 8.568 179.64C7.52267 178.595 7 177.272 7 175.672C7 174.072 7.52267 172.755 8.568 171.72C9.624 170.675 10.9573 170.152 12.568 170.152C14.1893 170.152 15.5227 170.669 16.568 171.704C17.624 172.739 18.152 174.061 18.152 175.672C18.152 177.283 17.624 178.605 16.568 179.64C15.5227 180.675 14.1893 181.192 12.568 181.192ZM10.216 178.184C10.8133 178.845 11.5973 179.176 12.568 179.176C13.5387 179.176 14.3227 178.845 14.92 178.184C15.5173 177.523 15.816 176.685 15.816 175.672C15.816 174.659 15.5173 173.821 14.92 173.16C14.3227 172.499 13.5387 172.168 12.568 172.168C11.5973 172.168 10.8133 172.499 10.216 173.16C9.6293 173.821 9.336 174.659 9.336 175.672C9.336 176.685 9.6293 177.523 10.216 178.184ZM29.2984 181H27.1064L22.0184 174.04V181H19.7464V170.328H22.0824L27.0264 177.032V170.328H29.2984V181Z" fill="#000000"/>
</svg>
